<?xml version="1.0" encoding="UTF-8"?>
<svg id="Layer_1" xmlns="http://www.w3.org/2000/svg" version="1.1" xmlns:xlink="http://www.w3.org/1999/xlink" viewBox="0 0 64 64">
  <!-- Generator: Adobe Illustrator 29.3.1, SVG Export Plug-In . SVG Version: 2.1.0 Build 151)  -->
  <defs>
    <style>
      .st0 {
        fill: #ef4e29;
        stroke: #fff;
        stroke-linecap: round;
        stroke-miterlimit: 10;
        stroke-width: .5px;
      }

      .st1 {
        fill: #fff;
      }
    </style>
  </defs>
  <circle class="st1" cx="32" cy="32" r="15.3"/>
  <path class="st0" d="M56,32c0,6.7-2.4,12.3-7,17-4.6,4.7-10.3,7-17,7s-12.3-2.4-17-7c-4.7-4.6-7-10.3-7-17s2.3-12.3,7-17c4.7-4.7,10.4-7,17-7s12.3,2.3,17,7c4.7,4.7,7,10.4,7,17M37,28c0,.6-.2,1-.5,1.4h0c-.4.4-.9.6-1.4.6h-6v-4h6c.5,0,1,.2,1.3.5h.1c.4.5.5.9.5,1.5M41,36c0-1.5-.5-2.9-1.5-4,1-1.1,1.5-2.5,1.5-4s-.6-3-1.8-4.2h0c-1.2-1.2-2.6-1.8-4.2-1.8h-10v20h10c1.6,0,3-.6,4.2-1.8h0c1.2-1.2,1.8-2.6,1.8-4.2M37,36c0,.5-.2,1-.5,1.3h-.1c-.4.5-.8.7-1.3.7h-6v-4h6c.5,0,1,.2,1.4.6h0c.4.4.5.8.5,1.4"/>
</svg>