<?xml version="1.0" encoding="UTF-8"?>
<svg id="Layer_1" xmlns="http://www.w3.org/2000/svg" version="1.1" xmlns:xlink="http://www.w3.org/1999/xlink" viewBox="0 0 64 64">
  <!-- Generator: Adobe Illustrator 29.3.1, SVG Export Plug-In . SVG Version: 2.1.0 Build 151)  -->
  <defs>
    <style>
      .st0 {
        fill: #fff;
      }

      .st1 {
        fill: #7db700;
        stroke: #fff;
        stroke-linecap: round;
        stroke-miterlimit: 10;
        stroke-width: .5px;
      }
    </style>
  </defs>
  <circle class="st0" cx="32" cy="32" r="17.6"/>
  <path class="st1" d="M56,32c0,6.7-2.4,12.3-7,17-4.6,4.7-10.3,7-17,7s-12.3-2.4-17-7c-4.7-4.6-7-10.3-7-17s2.3-12.3,7-17c4.7-4.7,10.4-7,17-7s12.3,2.3,17,7c4.7,4.7,7,10.4,7,17M38,42h4l-8-20h-4l-8,20h4l1.6-4h8.8l1.6,4M32,27l2.8,7h-5.6l2.8-7"/>
</svg>