# Blender 4.3.2
# www.blender.org
mtllib LauncherFlipper.mtl
o Cube.002
v -1.033677 -0.316065 0.133677
v -1.033677 -0.126259 0.285522
v -1.185521 -0.126259 0.133677
v -1.033677 0.126259 0.285522
v -1.033677 0.316064 0.133677
v -1.185521 0.126259 0.133677
v -1.033677 -0.316065 -2.533677
v -1.185521 -0.126259 -2.533677
v -1.033677 -0.126259 -2.685521
v -1.033677 0.316064 -2.533677
v -1.033677 0.126259 -2.685521
v -1.185521 0.126259 -2.533677
v 1.033677 -0.316065 0.133677
v 1.185521 -0.126259 0.133677
v 1.033677 -0.126259 0.285522
v 1.033677 0.316064 0.133677
v 1.033677 0.126259 0.285522
v 1.185521 0.126259 0.133677
v 1.033677 -0.316065 -2.533677
v 1.033677 -0.126259 -2.685521
v 1.185521 -0.126259 -2.533677
v 1.033677 0.316064 -2.533677
v 1.185521 0.126259 -2.533677
v 1.033677 0.126259 -2.685521
vn -0.0000 1.0000 -0.0000
vn -0.7071 -0.0000 -0.7071
vn -0.0000 -1.0000 -0.0000
vn -0.0000 -0.0000 -1.0000
vn -0.7071 -0.0000 0.7071
vn 0.7809 0.6247 -0.0000
vn 0.7071 -0.0000 -0.7071
vn 0.6155 0.4924 -0.6155
vn 0.6155 -0.4924 -0.6155
vn -0.6155 -0.4924 -0.6155
vn -0.6155 0.4924 -0.6155
vn -0.6155 -0.4924 0.6155
vn -0.6155 0.4924 0.6155
vn -0.0000 -0.0000 1.0000
vn 0.7809 -0.6247 -0.0000
vn 0.6155 0.4924 0.6155
vn 0.6155 -0.4924 0.6155
vn -0.0000 -0.6247 -0.7809
vn 0.7071 -0.0000 0.7071
vn -0.7809 -0.6247 -0.0000
vn 1.0000 -0.0000 -0.0000
vn -0.7809 0.6247 -0.0000
vn -0.0000 -0.6247 0.7809
vn -0.0000 0.6247 -0.7809
vn -0.0000 0.6247 0.7809
vn -1.0000 -0.0000 -0.0000
vt 0.858990 0.516010
vt 0.858990 0.733990
vt 0.641010 0.733990
vt 0.641010 0.516010
vt 0.000000 0.000000
vt 0.604207 0.266010
vt 0.358990 0.516010
vt 0.358990 0.733990
vt 0.141010 0.733990
vt 0.141010 0.516010
vt 0.604207 0.483990
vt 0.395793 0.483990
vt 0.395793 0.266010
vt 0.604207 0.016010
vt 0.604207 0.516010
vt 0.604207 0.766010
vt 0.604207 0.983990
vt 0.395793 0.983990
vt 0.395793 0.766010
vt 0.604207 0.733990
vt 0.395793 0.733990
vt 0.395793 0.516010
vt 0.604207 0.233990
vt 0.395793 0.233990
vt 0.395793 0.016010
s 1
usemtl None
f 10/1/1 5/2/1 16/3/1 22/4/1
f 8/5/2 12/5/2 11/6/2 9/5/2
f 19/7/3 13/8/3 1/9/3 7/10/3
f 11/6/4 24/11/4 20/12/4 9/13/4
f 2/5/5 4/5/5 6/14/5 3/5/5
f 22/5/6 16/5/6 18/5/6 23/5/6
f 20/5/7 24/5/7 23/15/7 21/5/7
f 24/5/8 22/5/8 23/15/8
f 20/5/9 21/5/9 19/5/9
f 8/5/10 9/5/10 7/5/10
f 11/6/11 12/5/11 10/5/11
f 2/5/12 3/5/12 1/5/12
f 5/5/13 6/14/13 4/5/13
f 17/16/14 4/17/14 2/18/14 15/19/14
f 13/5/15 19/5/15 21/5/15 14/5/15
f 17/16/16 18/5/16 16/5/16
f 14/5/17 15/5/17 13/5/17
f 19/5/18 7/5/18 9/5/18 20/5/18
f 14/5/19 18/5/19 17/16/19 15/5/19
f 7/5/20 1/5/20 3/5/20 8/5/20
f 23/15/21 18/20/21 14/21/21 21/22/21
f 6/14/22 5/5/22 10/5/22 12/5/22
f 1/5/23 13/5/23 15/5/23 2/5/23
f 10/5/24 22/5/24 24/5/24 11/5/24
f 16/5/25 5/5/25 4/5/25 17/5/25
f 6/14/26 12/23/26 8/24/26 3/25/26
