# Blender v3.0.0 OBJ File: 'rship1.blend'
# www.blender.org
mtllib rship1.mtl
o Cube.004_Cube.002
v 0.499328 -0.500000 -1.000000
v 1.000000 -0.500000 -0.499328
v 1.366121 0.365246 -0.682150
v 0.682158 0.365246 -1.366113
v 0.337253 3.130169 -0.255979
v 0.686254 2.364666 -0.400540
v 0.255987 3.130169 -0.337245
v 0.400548 2.364666 -0.686247
v -0.000086 0.365246 -1.366113
v -0.000086 -0.500000 -1.000000
v 0.750268 -1.944526 -0.374638
v 0.374647 -1.944526 -0.750260
v 0.466811 -2.168137 -0.233100
v 0.233109 -2.168137 -0.466803
v 0.466811 -2.444364 -0.233100
v 0.233109 -2.444364 -0.466803
v 1.391848 -1.326305 -0.694997
v 0.695005 -1.326305 -1.391840
v 1.190822 -2.440443 -0.896023
v 0.896032 -2.440443 -1.190813
v -0.000086 3.130169 -0.337245
v -0.000086 2.364666 -0.686247
v -0.000086 -1.326305 -1.391840
v -0.000086 -1.944526 -0.750260
v -0.000086 -2.168137 -0.466803
v -0.000086 -2.444364 -0.466803
v 1.000000 -0.500000 0.000064
v 1.366121 0.365246 0.000064
v 0.337253 3.130169 0.000064
v 0.686254 2.364666 0.000064
v 1.391848 -1.326305 0.000064
v 0.750268 -1.944526 0.000064
v 0.466811 -2.168137 0.000064
v 0.466811 -2.444364 0.000064
v -0.499499 -0.500000 -1.000000
v -1.000171 -0.500000 -0.499328
v -1.366292 0.365246 -0.682150
v -0.682329 0.365246 -1.366113
v -0.337424 3.130169 -0.255979
v -0.686425 2.364666 -0.400540
v -0.256158 3.130169 -0.337245
v -0.400719 2.364666 -0.686247
v 0.682158 0.365246 1.366242
v 0.337253 3.130169 0.256108
v -0.750439 -1.944526 -0.374638
v -0.374818 -1.944526 -0.750260
v -0.466982 -2.168137 -0.233100
v -0.233280 -2.168137 -0.466803
v -0.466982 -2.444364 -0.233100
v -0.233280 -2.444364 -0.466803
v -1.392019 -1.326305 -0.694997
v -0.695176 -1.326305 -1.391840
v -1.190993 -2.440443 -0.896023
v -0.896203 -2.440443 -1.190813
v 0.686254 2.364666 0.400669
v 1.366121 0.365246 0.682279
v 1.000000 -0.500000 0.499457
v 0.499328 -0.500000 1.000129
v -1.000171 -0.500000 0.000064
v -1.366292 0.365246 0.000064
v -0.337424 3.130169 0.000064
v -0.686425 2.364666 0.000064
v -1.392019 -1.326305 0.000064
v -0.750439 -1.944526 0.000064
v -0.466982 -2.168137 0.000064
v -0.466982 -2.444364 0.000064
v 0.255987 3.130169 0.337374
v 0.400548 2.364666 0.686375
v -0.000086 0.365246 1.366242
v -0.000086 -0.500000 1.000129
v 0.750268 -1.944526 0.374767
v 0.374647 -1.944526 0.750389
v 0.466811 -2.168137 0.233229
v 0.233109 -2.168137 0.466932
v 0.466811 -2.444364 0.233229
v 0.233109 -2.444364 0.466932
v 1.391848 -1.326305 0.695126
v 0.695005 -1.326305 1.391968
v 1.190822 -2.440443 0.896152
v 0.896032 -2.440443 1.190942
v -0.000086 3.130169 0.337374
v -0.000086 2.364666 0.686375
v -0.000086 -1.326305 1.391968
v -0.000086 -1.944526 0.750389
v -0.000086 -2.168137 0.466932
v -0.000086 -2.444364 0.466932
v -0.000086 3.539997 0.000064
v -0.000086 -2.444364 0.000064
v -0.499499 -0.500000 1.000129
v -1.000171 -0.500000 0.499457
v -1.366292 0.365246 0.682279
v -0.682329 0.365246 1.366242
v -0.337424 3.130169 0.256108
v -0.686425 2.364666 0.400669
v -0.256158 3.130169 0.337374
v -0.400719 2.364666 0.686375
v -0.750439 -1.944526 0.374767
v -0.374818 -1.944526 0.750389
v -0.466982 -2.168137 0.233229
v -0.233280 -2.168137 0.466932
v -0.466982 -2.444364 0.233229
v -0.233280 -2.444364 0.466932
v -1.392019 -1.326305 0.695126
v -0.695176 -1.326305 1.391968
v -1.190993 -2.440443 0.896152
v -0.896203 -2.440443 1.190942
vt 0.375000 0.375000
vt 0.562791 0.375000
vt 0.562791 0.437416
vt 0.375000 0.437416
vt 0.750000 0.562209
vt 0.713352 0.562209
vt 0.687584 0.500000
vt 0.750000 0.500000
vt 0.687209 0.625000
vt 0.562791 0.625000
vt 0.562791 0.562584
vt 0.687209 0.588352
vt 0.375000 0.562584
vt 0.625000 0.562584
vt 0.687209 0.588352
vt 0.713352 0.562209
vt 0.687584 0.500000
vt 0.726580 0.594143
vt 0.719144 0.601580
vt 0.750000 0.594144
vt 0.375000 0.437416
vt 0.375000 0.375000
vt 0.375000 0.562584
vt 0.375000 0.375000
vt 0.375000 0.437416
vt 0.375000 0.437416
vt 0.375000 0.375000
vt 0.375000 0.562584
vt 0.375000 0.562584
vt 0.375000 0.437416
vt 0.375000 0.375000
vt 0.375000 0.562584
vt 0.726580 0.594143
vt 0.375000 0.562584
vt 0.375000 0.437416
vt 0.375000 0.625000
vt 0.375000 0.625000
vt 0.375000 0.625000
vt 0.375000 0.625000
vt 0.375000 0.625000
vt 0.719144 0.625000
vt 0.375000 0.437416
vt 0.562791 0.437416
vt 0.687209 0.588352
vt 0.713352 0.562209
vt 0.687584 0.500000
vt 0.625000 0.562584
vt 0.687584 0.500000
vt 0.713352 0.562209
vt 0.687209 0.588352
vt 0.625000 0.562584
vt 0.562791 0.562584
vt 0.375000 0.562584
vt 0.726580 0.594143
vt 0.719144 0.601580
vt 0.375000 0.437416
vt 0.375000 0.562584
vt 0.375000 0.437416
vt 0.375000 0.437416
vt 0.375000 0.562584
vt 0.375000 0.562584
vt 0.375000 0.437416
vt 0.375000 0.562584
vt 0.750000 0.594144
vt 0.726580 0.594143
vt 0.750000 0.594144
vt 0.375000 0.562584
vt 0.375000 0.437416
vt 0.375000 0.625000
vt 0.375000 0.625000
vt 0.375000 0.625000
vt 0.375000 0.625000
vt 0.375000 0.625000
vt 0.687209 0.625000
vt 0.719144 0.625000
vt 0.562791 0.625000
vt 0.375000 0.375000
vt 0.375000 0.437416
vt 0.562791 0.437416
vt 0.562791 0.375000
vt 0.750000 0.562209
vt 0.719144 0.601580
vt 0.562791 0.562584
vt 0.375000 0.562584
vt 0.750000 0.500000
vt 0.375000 0.375000
vt 0.375000 0.437416
vt 0.375000 0.562584
vt 0.375000 0.375000
vt 0.375000 0.375000
vt 0.375000 0.437416
vt 0.375000 0.437416
vt 0.375000 0.562584
vt 0.375000 0.562584
vt 0.375000 0.375000
vt 0.375000 0.437416
vt 0.375000 0.562584
vt 0.719144 0.601580
vt 0.375000 0.562584
vt 0.375000 0.437416
vt 0.562791 0.437416
vt 0.375000 0.437416
vt 0.562791 0.562584
vt 0.375000 0.562584
vt 0.726580 0.594143
vt 0.719144 0.601580
vt 0.375000 0.437416
vt 0.375000 0.562584
vt 0.375000 0.437416
vt 0.375000 0.437416
vt 0.375000 0.562584
vt 0.375000 0.562584
vt 0.375000 0.437416
vt 0.375000 0.562584
vt 0.719144 0.625000
vt 0.375000 0.562584
vt 0.375000 0.437416
vt 0.375000 0.375000
vt 0.625000 0.562584
vn 0.0000 -0.3897 -0.9209
vn 0.0000 0.3219 -0.9468
vn 0.9468 0.3219 0.0000
vn 0.6452 -0.4093 -0.6452
vn -0.6695 0.3219 -0.6695
vn 0.6434 0.4148 -0.6434
vn 0.0000 0.4148 -0.9099
vn 0.0000 0.4285 -0.9036
vn 0.6318 0.4492 -0.6318
vn 0.0000 -0.7851 -0.6194
vn 0.0000 -0.7201 -0.6939
vn 0.4221 -0.8023 -0.4221
vn 0.0000 0.0000 -1.0000
vn 0.7071 0.0000 -0.7071
vn 0.0000 0.6355 -0.7721
vn 0.6123 -0.2460 0.7514
vn -0.7514 -0.2460 -0.6123
vn 1.0000 0.0000 0.0000
vn 0.6194 -0.7851 0.0000
vn 0.6939 -0.7201 0.0000
vn 0.9036 0.4285 0.0000
vn 0.9099 0.4148 0.0000
vn 0.9209 -0.3897 0.0000
vn 0.0000 -1.0000 -0.0000
vn 0.6695 0.3219 0.6695
vn -0.6695 0.3219 0.6695
vn -0.6452 -0.4093 -0.6452
vn -0.6434 0.4148 -0.6434
vn -0.6318 0.4492 -0.6318
vn -0.4221 -0.8023 -0.4221
vn -0.7071 0.0000 -0.7071
vn 0.0000 0.6355 0.7721
vn -0.6123 -0.2460 0.7514
vn 0.7514 -0.2460 -0.6123
vn -1.0000 0.0000 0.0000
vn -0.6194 -0.7851 0.0000
vn -0.6939 -0.7201 0.0000
vn -0.9036 0.4285 0.0000
vn -0.9099 0.4148 0.0000
vn -0.9209 -0.3897 0.0000
vn -0.9468 0.3219 0.0000
vn 0.0000 -0.3897 0.9209
vn 0.0000 0.4148 0.9099
vn 0.6434 0.4148 0.6434
vn 0.6452 -0.4093 0.6452
vn 0.0000 0.3219 0.9468
vn 0.0000 0.4285 0.9036
vn 0.6318 0.4492 0.6318
vn 0.0000 -0.7851 0.6194
vn 0.0000 -0.7201 0.6939
vn 0.4221 -0.8023 0.4221
vn 0.0000 0.0000 1.0000
vn 0.7071 0.0000 0.7071
vn 0.4941 0.7154 -0.4941
vn 0.6123 -0.2460 -0.7514
vn -0.7514 -0.2460 0.6123
vn -0.6452 -0.4093 0.6452
vn -0.6434 0.4148 0.6434
vn -0.6318 0.4492 0.6318
vn -0.4221 -0.8023 0.4221
vn -0.7071 0.0000 0.7071
vn -0.7721 0.6355 0.0000
vn -0.6123 -0.2460 -0.7514
vn 0.7514 -0.2460 0.6123
vn 0.7721 0.6355 0.0000
vn -0.4941 0.7154 -0.4941
vn -0.4941 0.7154 0.4941
vn 0.4941 0.7154 0.4941
vn -0.4166 -0.8080 0.4166
vn 0.4166 -0.8080 0.4166
vn -0.4166 -0.8080 -0.4166
vn 0.4166 -0.8080 -0.4166
vn 0.6695 0.3219 -0.6695
usemtl Material.002
s off
f 10/1/1 9/2/1 4/3/1 1/4/1
f 22/5/2 8/6/2 4/7/2 9/8/2
f 30/9/3 28/10/3 3/11/3 6/12/3
f 3/11/4 2/13/4 1/4/4 4/3/4
f 37/14/5 40/15/5 42/16/5 38/17/5
f 7/18/6 5/19/6 6/12/6 8/6/6
f 21/20/7 7/18/7 8/6/7 22/5/7
f 10/1/8 1/4/8 18/21/8 23/22/8
f 1/4/9 2/13/9 17/23/9 18/21/9
f 24/24/10 12/25/10 14/26/10 25/27/10
f 23/22/11 18/21/11 12/25/11 24/24/11
f 12/25/12 11/28/12 13/29/12 14/26/12
f 25/27/13 14/26/13 16/30/13 26/31/13
f 14/26/14 13/29/14 15/32/14 16/30/14
f 7/18/15 21/20/15 87/33/15
f 17/23/16 11/28/16 19/34/16
f 12/25/17 18/21/17 20/35/17
f 17/23/14 19/34/14 20/35/14 18/21/14
f 13/29/18 33/36/18 34/37/18 15/32/18
f 11/28/19 32/38/19 33/36/19 13/29/19
f 17/23/20 31/39/20 32/38/20 11/28/20
f 2/13/21 27/40/21 31/39/21 17/23/21
f 5/19/22 29/41/22 30/9/22 6/12/22
f 2/13/23 3/11/23 28/10/23 27/40/23
f 16/30/24 15/32/24 34/37/24 26/31/24
f 10/1/1 35/42/1 38/43/1 9/2/1
f 55/44/25 68/45/25 43/46/25 56/47/25
f 92/48/26 96/49/26 94/50/26 91/51/26
f 37/52/27 38/43/27 35/42/27 36/53/27
f 38/17/2 42/16/2 22/5/2 9/8/2
f 41/54/28 42/16/28 40/15/28 39/55/28
f 21/20/7 22/5/7 42/16/7 41/54/7
f 10/1/8 23/22/8 52/56/8 35/42/8
f 35/42/29 52/56/29 51/57/29 36/53/29
f 24/24/10 25/27/10 48/58/10 46/59/10
f 23/22/11 24/24/11 46/59/11 52/56/11
f 46/59/30 48/58/30 47/60/30 45/61/30
f 25/27/13 26/31/13 50/62/13 48/58/13
f 48/58/31 50/62/31 49/63/31 47/60/31
f 81/64/32 67/65/32 87/66/32
f 51/57/33 53/67/33 45/61/33
f 46/59/34 54/68/34 52/56/34
f 53/67/31 51/57/31 52/56/31 54/68/31
f 47/60/35 49/63/35 66/69/35 65/70/35
f 45/61/36 47/60/36 65/70/36 64/71/36
f 51/57/37 45/61/37 64/71/37 63/72/37
f 36/53/38 51/57/38 63/72/38 59/73/38
f 39/55/39 40/15/39 62/74/39 61/75/39
f 36/53/40 59/73/40 60/76/40 37/52/40
f 50/62/24 26/31/24 66/69/24 49/63/24
f 37/52/41 60/76/41 62/74/41 40/15/41
f 70/77/42 58/78/42 43/79/42 69/80/42
f 81/64/43 82/81/43 68/45/43 67/65/43
f 67/65/44 68/45/44 55/44/44 44/82/44
f 56/83/45 43/79/45 58/78/45 57/84/45
f 68/45/46 82/81/46 69/85/46 43/46/46
f 70/77/47 83/86/47 78/87/47 58/78/47
f 58/78/48 78/87/48 77/88/48 57/84/48
f 84/89/49 85/90/49 74/91/49 72/92/49
f 83/86/50 84/89/50 72/92/50 78/87/50
f 72/92/51 74/91/51 73/93/51 71/94/51
f 85/90/52 86/95/52 76/96/52 74/91/52
f 74/91/53 76/96/53 75/97/53 73/93/53
f 5/19/54 7/18/54 87/98/54
f 77/88/55 79/99/55 71/94/55
f 72/92/56 80/100/56 78/87/56
f 79/99/53 77/88/53 78/87/53 80/100/53
f 73/93/18 75/97/18 34/37/18 33/36/18
f 71/94/19 73/93/19 33/36/19 32/38/19
f 77/88/20 71/94/20 32/38/20 31/39/20
f 57/84/21 77/88/21 31/39/21 27/40/21
f 44/82/22 55/44/22 30/9/22 29/41/22
f 57/84/23 27/40/23 28/10/23 56/83/23
f 76/96/24 86/95/24 34/37/24 75/97/24
f 70/77/42 69/80/42 92/101/42 89/102/42
f 82/81/46 96/49/46 92/48/46 69/85/46
f 62/74/41 60/76/41 91/103/41 94/50/41
f 91/103/57 90/104/57 89/102/57 92/101/57
f 55/44/3 56/83/3 28/10/3 30/9/3
f 95/105/58 93/106/58 94/50/58 96/49/58
f 81/64/43 95/105/43 96/49/43 82/81/43
f 70/77/47 89/102/47 104/107/47 83/86/47
f 89/102/59 90/104/59 103/108/59 104/107/59
f 84/89/49 98/109/49 100/110/49 85/90/49
f 83/86/50 104/107/50 98/109/50 84/89/50
f 98/109/60 97/111/60 99/112/60 100/110/60
f 85/90/52 100/110/52 102/113/52 86/95/52
f 100/110/61 99/112/61 101/114/61 102/113/61
f 61/75/62 93/106/62 87/115/62
f 103/108/63 97/111/63 105/116/63
f 98/109/64 104/107/64 106/117/64
f 103/108/61 105/116/61 106/117/61 104/107/61
f 99/112/35 65/70/35 66/69/35 101/114/35
f 97/111/36 64/71/36 65/70/36 99/112/36
f 103/108/37 63/72/37 64/71/37 97/111/37
f 90/104/38 59/73/38 63/72/38 103/108/38
f 93/106/39 61/75/39 62/74/39 94/50/39
f 90/104/40 91/103/40 60/76/40 59/73/40
f 102/113/24 101/114/24 66/69/24 86/95/24
f 44/82/65 29/41/65 87/98/65
f 39/55/62 61/75/62 87/98/62
f 41/54/66 39/55/66 87/33/66
f 88/118/24 34/37/24 86/95/24
f 21/20/15 41/54/15 87/66/15
f 29/41/65 5/19/65 87/115/65
f 93/106/67 95/105/67 87/98/67
f 86/95/24 66/69/24 88/118/24
f 67/65/68 44/82/68 87/33/68
f 26/31/24 88/118/24 66/69/24
f 26/31/24 34/37/24 88/118/24
f 95/105/32 81/64/32 87/33/32
f 11/28/69 12/25/69 20/35/69 19/34/69
f 53/67/70 54/68/70 46/59/70 45/61/70
f 79/99/71 80/100/71 72/92/71 71/94/71
f 97/111/72 98/109/72 106/117/72 105/116/72
f 4/7/73 8/6/73 6/12/73 3/119/73
