# Blender v3.0.0 OBJ File: 'stun4.blend'
# www.blender.org
mtllib stun.mtl
o Cube.003
v 0.926812 -0.084614 -0.910635
v 0.926812 1.504717 -0.910635
v 2.516142 -0.084614 -0.910635
v 2.516142 1.504717 -0.910635
v 0.356272 -0.000803 -1.548686
v 0.356272 1.395940 -1.548686
v 1.523233 -0.000803 -2.316209
v 1.523233 1.395940 -2.316209
v -0.514116 0.110276 -1.801946
v -0.514116 1.318376 -1.801946
v -0.035612 0.110276 -2.911243
v -0.035612 1.318376 -2.911243
v -1.426560 0.140690 -1.498093
v -1.426560 1.248376 -1.498093
v -1.618908 0.140690 -2.588950
v -1.618908 1.248376 -2.588950
v -2.043655 0.187196 -0.725659
v -2.043655 1.206144 -0.725659
v -2.742900 0.187196 -1.466815
v -2.742900 1.206144 -1.466815
v -2.171645 0.258519 0.275117
v -2.171645 1.139096 0.275117
v -3.028486 0.258519 0.072041
v -3.028486 1.139096 0.072041
v -1.696382 0.276035 1.210300
v -1.696382 1.081994 1.210300
v -2.453735 0.276035 1.485953
v -2.453735 1.081994 1.485953
v -0.835148 0.407419 1.831608
v -0.835148 0.929390 1.831608
v -1.146848 0.407419 2.250293
v -1.146848 0.929390 2.250293
v 0.306662 0.454716 1.831343
v 0.306662 0.840873 1.831343
v 0.284209 0.454716 2.216847
v 0.284209 0.840873 2.216847
v 1.360973 0.647184 1.303106
v 1.043584 1.504717 -0.505366
v 1.043584 -0.084614 -0.505366
vt 0.375000 0.250000
vt 0.625000 0.250000
vt 0.717593 0.250000
vt 0.467593 0.250000
vt 0.810185 0.250000
vt 0.560185 0.250000
vt 0.902778 0.250000
vt 0.652778 0.250000
vt 0.995370 0.250000
vt 0.745370 0.250000
vt 1.087963 0.250000
vt 0.837963 0.250000
vt 1.180556 0.250000
vt 0.930556 0.250000
vt 1.273148 0.250000
vt 1.023148 0.250000
vt 1.365741 0.250000
vt 1.115741 0.250000
vt 1.208333 0.250000
vt 0.375000 0.500000
vt 0.467593 0.500000
vt 0.560185 0.500000
vt 0.652778 0.500000
vt 0.745370 0.500000
vt 0.837963 0.500000
vt 0.930556 0.500000
vt 1.023148 0.500000
vt 1.115741 0.500000
vt 1.208333 0.500000
vt 0.625000 0.500000
vt 0.717593 0.500000
vt 0.810185 0.500000
vt 0.902778 0.500000
vt 0.995370 0.500000
vt 1.087963 0.500000
vt 1.180556 0.500000
vt 1.273148 0.500000
vt 1.365741 0.500000
vt 1.458333 0.250000
vt 1.458333 0.500000
vt 0.375000 0.250000
vt 0.625000 0.250000
vn -0.5724 -0.7733 0.2725
vn -0.5739 0.7765 0.2601
vn -0.3859 0.7793 0.4937
vn -0.3904 -0.7837 0.4830
vn -0.0406 0.7861 0.6168
vn -0.0303 -0.7807 0.6241
vn 0.3273 0.7801 0.5332
vn 0.3328 -0.7817 0.5274
vn 0.5594 0.7797 0.2812
vn 0.5577 -0.7800 0.2838
vn 0.6172 0.7842 -0.0632
vn 0.6202 -0.7803 -0.0810
vn 0.5276 0.7766 -0.3442
vn 0.5167 -0.7766 -0.3604
vn 0.2655 0.7869 -0.5570
vn 0.2439 -0.7850 -0.5694
vn -0.0305 0.7810 -0.6237
vn -0.0418 -0.7826 -0.6211
vn 0.8361 -0.0005 -0.5485
vn 0.7725 -0.5752 0.2690
vn 0.4427 -0.6388 -0.6292
vn 0.0338 -0.6314 -0.7747
vn -0.3737 -0.6456 -0.6660
vn -0.6876 -0.6424 -0.3382
vn -0.7647 -0.6371 0.0964
vn -0.5622 -0.6463 0.5160
vn -0.1616 -0.6263 0.7626
vn 0.3055 -0.6363 0.7083
vn 0.7705 0.5793 0.2660
vn 0.4458 0.6323 -0.6335
vn 0.0342 0.6400 -0.7675
vn -0.3837 0.6382 -0.6674
vn -0.6865 0.6430 -0.3395
vn -0.7611 0.6406 0.1013
vn -0.5587 0.6397 0.5278
vn -0.1522 0.6242 0.7663
vn 0.3154 0.6273 0.7120
vn -0.3990 -0.5780 0.7118
vn -0.3990 0.5780 0.7118
usemtl Material
s 1
f 1/1/1 2/2/2 6/3/3 5/4/4
f 5/4/4 6/3/3 10/5/5 9/6/6
f 9/6/6 10/5/5 14/7/7 13/8/8
f 13/8/8 14/7/7 18/9/9 17/10/10
f 17/10/10 18/9/9 22/11/11 21/12/12
f 21/12/12 22/11/11 26/13/13 25/14/14
f 25/14/14 26/13/13 30/15/15 29/16/16
f 29/16/16 30/15/15 34/17/17 33/18/18
f 33/18/18 34/17/17 37/19/19
f 3/20/20 1/1/1 5/4/4 7/21/21
f 7/21/21 5/4/4 9/6/6 11/22/22
f 11/22/22 9/6/6 13/8/8 15/23/23
f 15/23/23 13/8/8 17/10/10 19/24/24
f 19/24/24 17/10/10 21/12/12 23/25/25
f 23/25/25 21/12/12 25/14/14 27/26/26
f 27/26/26 25/14/14 29/16/16 31/27/27
f 31/27/27 29/16/16 33/18/18 35/28/28
f 35/28/28 33/18/18 37/29/19
f 2/2/2 4/30/29 8/31/30 6/3/3
f 6/3/3 8/31/30 12/32/31 10/5/5
f 10/5/5 12/32/31 16/33/32 14/7/7
f 14/7/7 16/33/32 20/34/33 18/9/9
f 18/9/9 20/34/33 24/35/34 22/11/11
f 22/11/11 24/35/34 28/36/35 26/13/13
f 26/13/13 28/36/35 32/37/36 30/15/15
f 30/15/15 32/37/36 36/38/37 34/17/17
f 34/17/17 36/38/37 37/39/19
f 4/30/29 3/20/20 7/21/21 8/31/30
f 8/31/30 7/21/21 11/22/22 12/32/31
f 12/32/31 11/22/22 15/23/23 16/33/32
f 16/33/32 15/23/23 19/24/24 20/34/33
f 20/34/33 19/24/24 23/25/25 24/35/34
f 24/35/34 23/25/25 27/26/26 28/36/35
f 28/36/35 27/26/26 31/27/27 32/37/36
f 32/37/36 31/27/27 35/28/28 36/38/37
f 36/38/37 35/28/28 37/40/19
f 2/2/2 1/1/1 39/41/38 38/42/39
f 4/30/29 38/42/39 39/41/38 3/20/20
f 2/2/2 38/42/39 4/30/29
f 1/1/1 3/20/20 39/41/38
