# Blender v3.0.0 OBJ File: 'beltend.blend'
# www.blender.org
mtllib beltend.mtl
o Cube.008
v 0.946108 -0.195714 -1.049339
v 0.946108 0.000000 -1.079987
v 0.946108 0.000000 -0.913091
v 0.946108 -0.139509 -0.891244
v -0.953892 0.195714 -1.049339
v -0.953892 0.367218 -0.964204
v 0.946108 0.367218 -0.964204
v 0.946108 0.195714 -1.049339
v -0.953892 -0.367218 -0.964204
v -0.953892 -0.195714 -1.049339
v 0.946108 -0.367218 -0.964204
v -0.953892 0.511306 -0.825059
v -0.953892 0.364469 -0.731373
v -0.953892 0.432654 -0.601911
v -0.953892 0.606963 -0.643438
v -0.953892 0.640225 -0.433823
v 0.946108 0.640225 -0.433823
v -0.953892 0.456364 -0.451777
v 0.946108 0.456364 -0.451777
v -0.953892 -0.640224 -0.433823
v 0.946108 -0.640224 -0.433823
v 0.946108 0.511306 -0.825059
v -0.953892 -0.139509 -0.891244
v -0.953892 -0.261760 -0.830558
v 0.946108 -0.261760 -0.830558
v -0.953892 -0.511306 -0.825059
v 0.946108 -0.511306 -0.825059
v 0.946108 0.606963 -0.643438
v -0.953892 -0.606963 -0.643438
v 0.946108 -0.606963 -0.643438
v 0.946108 -0.456364 -0.451777
v 0.946108 0.139509 -0.891244
v -0.953892 -0.456364 -0.451777
v 0.946108 0.432654 -0.601911
v 0.946108 0.364469 -0.731373
v -0.953892 0.000000 -1.079987
v -0.953892 0.000000 -0.913091
v -0.953892 0.139509 -0.891244
v 0.946108 -0.364469 -0.731373
v 0.946108 0.261760 -0.830558
v -0.953892 -0.432654 -0.601911
v -0.953892 -0.364469 -0.731373
v 0.946108 -0.432654 -0.601911
v -0.953892 0.261760 -0.830558
v 0.946108 0.640225 1.018461
v -0.953892 0.640225 1.018461
v -0.953892 0.456364 1.018461
v 0.946108 0.456364 1.018461
v 0.946108 -0.456364 1.018461
v -0.953892 -0.456364 1.018461
v 0.946108 -0.640225 1.018461
v -0.953892 -0.640225 1.018461
vt 0.000000 0.000000
vt 0.000000 0.000000
vt 0.000000 0.000000
vt 0.000000 0.000000
vt 0.000000 0.000000
vt 0.000000 0.000000
vt 0.000000 0.000000
vt 0.000000 0.000000
vt 0.000000 0.000000
vt 0.000000 0.000000
vt 0.000000 0.000000
vt 0.000000 0.000000
vt 0.000000 0.000000
vt 0.000000 0.000000
vt 0.000000 0.000000
vt 0.000000 0.000000
vt 0.000000 0.000000
vt 0.000000 0.000000
vt 0.000000 0.000000
vt 0.000000 0.000000
vt 0.000000 0.000000
vt 0.000000 0.000000
vt 0.000000 0.000000
vt 0.000000 0.000000
vt 0.000000 0.000000
vt 0.000000 0.000000
vt 0.000000 0.000000
vt 0.000000 0.000000
vt 0.000000 0.000000
vt 0.000000 0.000000
vt 0.000000 0.000000
vt 0.000000 0.000000
vt 0.000000 0.000000
vt 0.000000 0.000000
vt 0.000000 0.000000
vt 0.000000 0.000000
vt 0.000000 0.000000
vt 0.000000 0.000000
vt 0.000000 0.000000
vt 0.000000 0.000000
vt 0.000000 0.000000
vt 0.000000 0.000000
vt 0.000000 0.000000
vt 0.000000 0.000000
vt 0.000000 0.000000
vt 0.000000 0.000000
vt 0.000000 0.000000
vt 0.000000 0.000000
vt 0.000000 0.000000
vt 0.000000 0.000000
vt 0.000000 0.000000
vt 0.000000 0.000000
vn 1.0000 0.0000 0.0000
vn 0.0000 0.4446 -0.8957
vn 0.0000 -0.4446 -0.8957
vn -1.0000 0.0000 0.0000
vn 0.0000 -1.0000 -0.0000
vn 0.0000 0.6947 -0.7193
vn 0.0000 0.4446 0.8957
vn 0.0000 -0.6947 -0.7193
vn 0.0000 0.8848 -0.4660
vn 0.0000 -0.9876 -0.1567
vn 0.0000 -0.9878 0.1560
vn 0.0000 -0.1547 0.9880
vn 0.0000 0.8848 0.4660
vn 0.0000 0.1547 -0.9880
vn 0.0000 -0.8848 -0.4660
vn 0.0000 0.9878 0.1560
vn 0.0000 -0.8848 0.4660
vn 0.0000 0.1547 0.9880
vn 0.0000 0.9876 -0.1567
vn 0.0000 0.6947 0.7193
vn 0.0000 -0.6947 0.7193
vn 0.0000 -0.1547 -0.9880
vn 0.0000 -0.4446 0.8957
vn 0.0000 1.0000 0.0000
vn 0.0000 0.0000 1.0000
usemtl None
s off
f 1/1/1 2/2/1 3/3/1 4/4/1
f 5/5/2 6/6/2 7/7/2 8/8/2
f 9/9/3 10/10/3 1/1/3 11/11/3
f 12/12/4 13/13/4 14/14/4 15/15/4
f 47/16/5 18/17/5 19/18/5 48/19/5
f 52/20/5 20/21/5 21/22/5 51/23/5
f 48/19/1 19/18/1 17/24/1 45/25/1
f 6/6/6 12/12/6 22/26/6 7/7/6
f 23/27/7 24/28/7 25/29/7 4/4/7
f 26/30/8 9/9/8 11/11/8 27/31/8
f 12/12/9 15/15/9 28/32/9 22/26/9
f 20/21/10 29/33/10 30/34/10 21/22/10
f 2/2/1 8/8/1 32/35/1 3/3/1
f 22/26/1 28/32/1 34/36/1 35/37/1
f 18/17/11 14/14/11 34/36/11 19/18/11
f 11/11/1 1/1/1 4/4/1 25/29/1
f 36/38/4 37/39/4 38/40/4 5/5/4
f 27/31/1 11/11/1 25/29/1 39/41/1
f 7/7/1 22/26/1 35/37/1 40/42/1
f 29/33/4 41/43/4 42/44/4 26/30/4
f 28/32/1 17/24/1 19/18/1 34/36/1
f 38/40/12 37/39/12 3/3/12 32/35/12
f 9/9/4 24/28/4 23/27/4 10/10/4
f 42/44/13 41/43/13 43/45/13 39/41/13
f 36/38/14 5/5/14 8/8/14 2/2/14
f 29/33/15 26/30/15 27/31/15 30/34/15
f 41/43/16 33/46/16 31/47/16 43/45/16
f 5/5/4 38/40/4 44/48/4 6/6/4
f 30/34/1 27/31/1 39/41/1 43/45/1
f 14/14/17 13/13/17 35/37/17 34/36/17
f 37/39/18 23/27/18 4/4/18 3/3/18
f 15/15/19 16/49/19 17/24/19 28/32/19
f 20/21/4 33/46/4 41/43/4 29/33/4
f 10/10/4 23/27/4 37/39/4 36/38/4
f 6/6/4 44/48/4 13/13/4 12/12/4
f 15/15/4 14/14/4 18/17/4 16/49/4
f 24/28/20 42/44/20 39/41/20 25/29/20
f 8/8/1 7/7/1 40/42/1 32/35/1
f 21/22/1 30/34/1 43/45/1 31/47/1
f 47/16/4 46/50/4 16/49/4 18/17/4
f 26/30/4 42/44/4 24/28/4 9/9/4
f 13/13/21 44/48/21 40/42/21 35/37/21
f 10/10/22 36/38/22 2/2/22 1/1/22
f 44/48/23 38/40/23 32/35/23 40/42/23
f 16/49/24 46/50/24 45/25/24 17/24/24
f 33/46/24 50/51/24 49/52/24 31/47/24
f 33/46/4 20/21/4 52/20/4 50/51/4
f 31/47/1 49/52/1 51/23/1 21/22/1
f 46/50/25 47/16/25 48/19/25 45/25/25
f 49/52/25 50/51/25 52/20/25 51/23/25
