# Blender v3.0.0 OBJ File: 'launchbase.blend'
# www.blender.org
mtllib LPadBase.mtl
o Cube.001
v -1.007522 -0.341065 -4.024303
v -1.159367 -0.151259 -4.024103
v -1.214328 -0.160125 -4.079435
v -1.025113 -0.393847 -4.079309
v -1.214327 0.241064 -3.889503
v -1.465941 0.241064 -3.889503
v -1.465941 0.051259 -4.079309
v -1.655748 0.051259 -3.889503
v 1.492096 -1.141065 -1.307904
v 1.681902 -0.951259 -1.307904
v 1.492096 -0.951259 -1.118098
v 1.492096 0.241065 -1.307904
v 1.492096 0.051259 -1.118098
v 1.681902 0.051259 -1.307904
v -1.465941 -0.951259 -4.079309
v 1.185522 0.043121 -1.172713
v 1.240482 0.052206 -1.118490
v 1.185522 -0.151259 -1.173304
v 1.240482 -0.160125 -1.117972
v -1.655748 -0.951259 -3.889503
v 1.051268 -0.393847 -1.118098
v 1.033677 -0.341065 -1.173104
v 1.240482 0.241065 -1.307904
v -1.465941 -1.141065 -3.889503
v -1.214328 0.052206 -1.118490
v -1.159367 0.043121 -1.172713
v -1.007522 -0.341065 -1.173104
v -1.159367 -0.151259 -1.173304
v -1.214328 -0.160125 -1.117972
v -1.025113 -0.393847 -1.118098
v -1.214327 0.241064 -1.307904
v -1.465941 0.241064 -1.307904
v -1.465941 0.051259 -1.118098
v -1.655748 0.051259 -1.307904
v 1.492096 -1.141065 -3.889503
v 1.681902 -0.951259 -3.889503
v 1.492096 -0.951259 -4.079309
v 1.492096 0.241065 -3.889503
v 1.492096 0.051259 -4.079309
v 1.681902 0.051259 -3.889503
v -1.465941 -0.951259 -1.118098
v 1.185522 0.043121 -4.024694
v 1.240482 0.052206 -4.078917
v 1.185522 -0.151259 -4.024103
v 1.240482 -0.160125 -4.079435
v 1.051268 -0.393847 -4.079309
v 1.033677 -0.341065 -4.024303
v -1.655748 -0.951259 -1.307904
v -1.214328 0.052206 -4.078917
v -1.159367 0.043121 -4.024694
v 1.240482 0.241065 -3.889503
v -1.465941 -1.141065 -1.307904
vt 0.358990 0.738677
vt 0.375000 0.738677
vt 0.358990 0.750000
vt 0.522647 0.787808
vt 0.522647 0.787808
vt 0.562106 0.775000
vt 0.562106 0.775000
vt 0.559881 0.770586
vt 0.595150 0.770485
vt 0.592314 0.775000
vt 0.604207 0.766010
vt 0.625000 0.766010
vt 0.625000 0.770364
vt 0.604415 0.770364
vt 0.511691 0.785123
vt 0.592314 0.775000
vt 0.468502 0.674779
vt 0.468502 0.674779
vt 0.645364 0.733990
vt 0.645364 0.733990
vt 0.610295 0.766010
vt 0.604207 0.738677
vt 0.625000 0.766010
vt 0.604207 0.738677
vt 0.625000 0.766010
vt 0.604207 0.738677
vt 0.641010 0.733990
vt 0.641010 0.733990
vt 0.358990 0.738677
vt 0.375000 0.738677
vt 0.375000 0.738677
vt 0.358990 0.738677
vt 0.604207 0.766010
vt 0.625000 0.770364
vt 0.604415 0.770364
vt 0.358990 0.750000
vt 0.604207 0.733990
vt 0.395793 0.766010
vt 0.395793 0.733990
vt 0.641010 0.733990
vt 0.641010 0.733990
vt 0.645364 0.733990
vt 0.645364 0.733990
vt 0.468502 0.674779
vt 0.395793 0.733990
vt 0.604207 0.733990
vt 0.395793 0.766010
vt 0.625000 0.770364
vt 0.604415 0.770364
vt 0.468502 0.674779
vt 0.511691 0.785123
vt 0.559881 0.770586
vt 0.562106 0.775000
vt 0.522647 0.787808
vt 0.595150 0.770485
vt 0.592314 0.775000
vt 0.358990 0.738677
vt 0.358990 0.750000
vt 0.375000 0.738677
vt 0.625000 0.770364
vt 0.604415 0.770364
vt 0.610295 0.766010
vt 0.604207 0.766010
vt 0.559881 0.770586
vt 0.595150 0.770485
vt 0.358990 0.750000
vt 0.610295 0.766010
vt 0.625000 0.766010
vt 0.604207 0.738677
vt 0.610295 0.766010
vt 0.395793 0.733990
vt 0.604207 0.733990
vt 0.604207 0.766010
vt 0.511691 0.785123
vt 0.395793 0.766010
vt 0.604207 0.733990
vt 0.395793 0.733990
vt 0.522647 0.787808
vt 0.562106 0.775000
vt 0.559881 0.770586
vt 0.511691 0.785123
vt 0.592314 0.775000
vt 0.595150 0.770485
vt 0.395793 0.766010
vn 0.5774 -0.5774 0.5774
vn 0.7809 0.6247 0.0000
vn 0.7059 -0.0001 -0.7083
vn -0.0008 0.7076 -0.7066
vn 0.5897 0.4750 -0.6532
vn 1.0000 -0.0000 0.0000
vn 0.9635 0.2675 0.0000
vn 0.5774 0.5774 0.5774
vn -0.7071 0.7071 0.0000
vn 0.0000 1.0000 0.0000
vn -0.7071 -0.7071 0.0000
vn 0.0008 0.7076 0.7066
vn -0.5774 -0.5773 -0.5774
vn 0.6311 0.5493 -0.5477
vn 0.7071 0.0000 0.7071
vn -0.6311 0.5493 0.5477
vn -0.7071 0.0000 -0.7071
vn -0.6311 0.5493 -0.5477
vn -0.5897 0.4750 0.6532
vn -0.7059 -0.0001 0.7083
vn 0.5774 -0.5773 -0.5773
vn 0.6311 0.5493 0.5477
vn -0.5774 0.5773 -0.5774
vn 0.0000 -0.7071 -0.7071
vn -0.0008 0.7076 0.7066
vn 0.7059 -0.0001 0.7083
vn 0.0000 -0.7071 0.7071
vn 0.5774 0.5773 -0.5774
vn 0.7071 -0.7071 0.0000
vn -0.5774 0.5774 0.5774
vn 0.0016 0.0024 -1.0000
vn -1.0000 0.0000 0.0000
vn 0.0008 0.7076 -0.7066
vn 0.0000 0.7215 0.6924
vn 0.5897 0.4750 0.6532
vn 0.7071 0.0000 -0.7071
vn 0.0000 -1.0000 0.0000
vn -0.5897 0.4750 -0.6532
vn -0.7059 -0.0001 -0.7083
vn 0.7071 0.7071 0.0000
vn -0.7071 0.0000 0.7071
vn -0.9635 0.2675 0.0000
vn -0.5774 -0.5773 0.5774
vn -0.7809 0.6247 0.0000
vn 0.0000 0.7215 -0.6924
vn -0.0005 0.0000 -1.0000
vn 0.0003 -0.0003 -1.0000
vn 0.0000 0.0000 -1.0000
vn 0.0000 0.0000 1.0000
vn -0.0016 0.0024 -1.0000
vn 0.0005 0.0000 -1.0000
vn -0.0003 -0.0003 -1.0000
vn 0.0003 -0.0003 1.0000
vn -0.0005 0.0000 1.0000
vn 0.0016 0.0024 1.0000
vn -0.0016 0.0024 1.0000
vn 0.0005 0.0000 1.0000
vn -0.0003 -0.0003 1.0000
usemtl None
s off
f 9/1/1 10/2/1 11/3/1
f 27/4/2 1/5/2 2/6/2 28/7/2
f 3/8/3 49/9/3 50/10/3 2/6/3
f 7/11/4 6/12/4 5/13/4 49/14/4
f 1/5/5 4/15/5 3/8/5 2/6/5
f 26/16/6 28/7/6 2/6/6 50/10/6
f 26/17/7 50/18/7 5/19/7 31/20/7
f 13/21/8 14/22/8 12/23/8
f 34/24/9 32/25/9 6/12/9 8/26/9
f 31/20/10 5/19/10 6/27/10 32/28/10
f 52/29/11 48/30/11 20/31/11 24/32/11
f 13/33/12 12/23/12 23/34/12 17/35/12
f 20/31/13 15/36/13 24/32/13
f 50/18/14 49/14/14 5/13/14
f 14/37/15 13/33/15 11/38/15 10/39/15
f 12/40/10 38/41/10 51/42/10 23/43/10
f 23/34/16 16/44/16 17/35/16
f 20/45/17 8/46/17 7/11/17 15/47/17
f 51/48/18 43/49/18 42/50/18
f 21/51/19 19/52/19 18/53/19 22/54/19
f 19/52/20 17/55/20 16/56/20 18/53/20
f 35/57/21 37/58/21 36/59/21
f 31/60/22 25/61/22 26/17/22
f 7/62/23 8/26/23 6/12/23
f 35/57/24 24/32/24 15/36/24 37/58/24
f 31/60/25 32/25/25 33/63/25 25/61/25
f 29/64/26 28/7/26 26/16/26 25/65/26
f 9/1/27 11/3/27 41/66/27 52/29/27
f 39/67/28 38/68/28 40/69/28
f 35/57/29 36/59/29 10/2/29 9/1/29
f 32/25/30 34/24/30 33/70/30
f 49/9/31 3/8/31 7/11/31
f 48/71/32 34/72/32 8/46/32 20/45/32
f 51/48/33 38/68/33 39/73/33 43/49/33
f 21/51/34 22/54/34 27/4/34 30/74/34
f 30/74/35 27/4/35 28/7/35 29/64/35
f 37/75/36 39/73/36 40/76/36 36/77/36
f 35/57/37 9/1/37 52/29/37 24/32/37
f 47/78/38 44/79/38 45/80/38 46/81/38
f 45/80/39 44/79/39 42/82/39 43/83/39
f 38/68/40 12/23/40 14/22/40 40/69/40
f 33/63/41 34/72/41 48/71/41 41/84/41
f 51/42/42 42/50/42 16/44/42 23/43/42
f 48/30/43 52/29/43 41/66/43
f 10/39/6 36/77/6 40/76/6 14/37/6
f 22/54/44 18/53/44 44/79/44 47/78/44
f 16/56/32 42/82/32 44/79/32 18/53/32
f 47/78/45 46/81/45 4/15/45 1/5/45
f 7/11/46 3/8/46 15/47/46
f 3/8/47 4/15/47 15/47/47
f 4/15/48 46/81/48 37/58/48 15/47/48
f 30/74/49 41/66/49 11/3/49 21/51/49
f 43/49/50 39/73/50 45/80/50
f 39/73/51 37/75/51 45/80/51
f 45/80/52 37/75/52 46/81/52
f 29/64/53 41/66/53 30/74/53
f 41/66/54 29/64/54 33/63/54
f 25/65/55 33/63/55 29/64/55
f 17/35/56 19/52/56 13/33/56
f 13/33/57 19/52/57 11/38/57
f 19/52/58 21/51/58 11/38/58
f 47/78/10 1/5/10 27/4/10 22/54/10
