# Blender v3.0.0 OBJ File: 'launchpad.blend'
# www.blender.org
mtllib LPad.mtl
o Cube.002
v -1.033677 -0.341065 -1.266323
v -1.033677 -0.151259 -1.114478
v -1.185521 -0.151259 -1.266323
v -1.033677 0.101259 -1.114478
v -1.033677 0.291064 -1.266323
v -1.185521 0.101259 -1.266323
v -1.033677 -0.341065 -3.933677
v -1.185521 -0.151259 -3.933677
v -1.033677 -0.151259 -4.085521
v -1.033677 0.291064 -3.933677
v -1.033677 0.101259 -4.085521
v -1.185521 0.101259 -3.933677
v 1.033677 -0.341065 -1.266323
v 1.185521 -0.151259 -1.266323
v 1.033677 -0.151259 -1.114478
v 1.033677 0.291064 -1.266323
v 1.033677 0.101259 -1.114478
v 1.185521 0.101259 -1.266323
v 1.033677 -0.341065 -3.933677
v 1.033677 -0.151259 -4.085521
v 1.185521 -0.151259 -3.933677
v 1.033677 0.291064 -3.933677
v 1.185521 0.101259 -3.933677
v 1.033677 0.101259 -4.085521
vt 0.858990 0.516010
vt 0.858990 0.733990
vt 0.641010 0.733990
vt 0.641010 0.516010
vt 0.000000 0.000000
vt 0.000000 0.000000
vt 0.604207 0.266010
vt 0.000000 0.000000
vt 0.358990 0.516010
vt 0.358990 0.733990
vt 0.141010 0.733990
vt 0.141010 0.516010
vt 0.604207 0.483990
vt 0.395793 0.483990
vt 0.395793 0.266010
vt 0.000000 0.000000
vt 0.000000 0.000000
vt 0.604207 0.016010
vt 0.000000 0.000000
vt 0.000000 0.000000
vt 0.000000 0.000000
vt 0.000000 0.000000
vt 0.000000 0.000000
vt 0.000000 0.000000
vt 0.000000 0.000000
vt 0.604207 0.516010
vt 0.000000 0.000000
vt 0.000000 0.000000
vt 0.000000 0.000000
vt 0.000000 0.000000
vt 0.000000 0.000000
vt 0.000000 0.000000
vt 0.604207 0.766010
vt 0.604207 0.983990
vt 0.395793 0.983990
vt 0.395793 0.766010
vt 0.000000 0.000000
vt 0.000000 0.000000
vt 0.000000 0.000000
vt 0.604207 0.733990
vt 0.395793 0.733990
vt 0.395793 0.516010
vt 0.000000 0.000000
vt 0.000000 0.000000
vt 0.604207 0.233990
vt 0.395793 0.233990
vt 0.395793 0.016010
vn 0.0000 1.0000 0.0000
vn -0.7071 0.0000 -0.7071
vn 0.0000 -1.0000 0.0000
vn 0.0000 0.0000 -1.0000
vn -0.7071 0.0000 0.7071
vn 0.7809 0.6247 0.0000
vn 0.7071 0.0000 -0.7071
vn 0.6155 0.4924 -0.6155
vn 0.6155 -0.4924 -0.6155
vn -0.6155 -0.4924 -0.6155
vn -0.6155 0.4924 -0.6155
vn -0.6155 -0.4924 0.6155
vn -0.6155 0.4924 0.6155
vn 0.0000 0.0000 1.0000
vn 0.7809 -0.6247 0.0000
vn 0.6155 0.4924 0.6155
vn 0.6155 -0.4924 0.6155
vn 0.0000 -0.6247 -0.7809
vn 0.7071 0.0000 0.7071
vn -0.7809 -0.6247 0.0000
vn 1.0000 0.0000 0.0000
vn -0.7809 0.6247 0.0000
vn 0.0000 -0.6247 0.7809
vn 0.0000 0.6247 -0.7809
vn 0.0000 0.6247 0.7809
vn -1.0000 0.0000 0.0000
usemtl None
s off
f 10/1/1 5/2/1 16/3/1 22/4/1
f 8/5/2 12/6/2 11/7/2 9/8/2
f 19/9/3 13/10/3 1/11/3 7/12/3
f 11/7/4 24/13/4 20/14/4 9/15/4
f 2/16/5 4/17/5 6/18/5 3/19/5
f 22/20/6 16/21/6 18/22/6 23/23/6
f 20/24/7 24/25/7 23/26/7 21/27/7
f 24/25/8 22/20/8 23/26/8
f 20/24/9 21/27/9 19/28/9
f 8/5/10 9/8/10 7/29/10
f 11/7/11 12/6/11 10/30/11
f 2/16/12 3/19/12 1/31/12
f 5/32/13 6/18/13 4/17/13
f 17/33/14 4/34/14 2/35/14 15/36/14
f 13/37/15 19/28/15 21/27/15 14/38/15
f 17/33/16 18/22/16 16/21/16
f 14/38/17 15/39/17 13/37/17
f 19/28/18 7/29/18 9/8/18 20/24/18
f 14/38/19 18/22/19 17/33/19 15/39/19
f 7/29/20 1/31/20 3/19/20 8/5/20
f 23/26/21 18/40/21 14/41/21 21/42/21
f 6/18/22 5/32/22 10/30/22 12/6/22
f 1/31/23 13/37/23 15/39/23 2/16/23
f 10/30/24 22/20/24 24/25/24 11/43/24
f 16/21/25 5/32/25 4/17/25 17/44/25
f 6/18/26 12/45/26 8/46/26 3/47/26
