# Blender v3.0.0 OBJ File: 'beltend.blend'
# www.blender.org
mtllib motorend.mtl
o motorend_Cube.001
v -0.712938 0.180697 -0.037914
v -0.712938 -0.000039 -0.006926
v 0.712939 -0.241303 -0.075490
v -0.712938 -0.180774 -0.037914
v -0.712938 -0.241303 -0.075484
v -0.712938 0.242534 -0.076301
v 0.712939 -0.180774 -0.037914
v 0.712939 -0.000039 -0.006926
v 0.712939 0.180697 -0.037914
v 0.712939 0.242534 -0.076296
v 0.853264 -0.180058 -0.883164
v 0.853264 -0.000039 -0.914042
v 0.853264 0.179981 -0.883164
v 0.951518 -0.173229 -0.867452
v 0.951518 -0.000039 -0.897283
v 0.951518 0.173152 -0.867452
v 0.987717 -0.157969 -0.825509
v 0.987717 -0.000039 -0.851891
v 0.987717 0.157891 -0.825509
v 0.853264 0.421763 -0.281342
v 0.951518 0.406052 -0.288171
v 0.987717 0.364109 -0.303432
v 0.853264 0.452641 -0.461362
v 0.951518 0.435882 -0.461362
v 0.987717 0.390490 -0.461362
v 0.853264 0.421763 -0.641382
v 0.951518 0.406052 -0.634553
v 0.987717 0.364109 -0.619292
v -0.853264 -0.421840 -0.281342
v -0.951518 -0.406129 -0.288171
v -0.987717 -0.364186 -0.303432
v -0.853264 -0.452718 -0.461362
v -0.951518 -0.435960 -0.461362
v -0.987717 -0.390567 -0.461362
v -0.853264 -0.421840 -0.641382
v -0.951518 -0.406129 -0.634552
v -0.987717 -0.364186 -0.619292
v -0.853264 -0.180058 -0.039561
v -0.853264 -0.000039 -0.008682
v -0.853264 0.179981 -0.039561
v -0.951518 -0.173229 -0.055272
v -0.951518 -0.000039 -0.025441
v -0.951518 0.173152 -0.055272
v -0.987717 -0.157969 -0.097215
v -0.987717 -0.000039 -0.070834
v -0.987717 0.157891 -0.097215
v -0.987717 -0.157969 -0.825509
v -0.987717 -0.000039 -0.851891
v -0.987717 0.157891 -0.825509
v -0.951518 -0.173229 -0.867452
v -0.951518 -0.000039 -0.897283
v -0.951518 0.173152 -0.867452
v -0.853264 -0.180058 -0.883164
v -0.853264 -0.000039 -0.914042
v -0.853264 0.179981 -0.883164
v -0.987717 0.364109 -0.303432
v -0.951518 0.406052 -0.288171
v -0.853264 0.421763 -0.281342
v -0.987717 0.390490 -0.461362
v -0.951518 0.435882 -0.461362
v -0.853264 0.452641 -0.461362
v -0.987717 0.364109 -0.619292
v -0.951518 0.406052 -0.634553
v -0.853264 0.421763 -0.641382
v 0.987717 -0.157969 -0.097215
v 0.987717 -0.000039 -0.070834
v 0.987717 0.157891 -0.097215
v 0.951518 -0.173229 -0.055272
v 0.951518 -0.000039 -0.025441
v 0.951518 0.173152 -0.055272
v 0.853264 -0.180058 -0.039561
v 0.853264 -0.000039 -0.008682
v 0.853264 0.179981 -0.039561
v 0.987717 -0.364186 -0.303432
v 0.951518 -0.406129 -0.288171
v 0.853264 -0.421840 -0.281342
v 0.987717 -0.390567 -0.461362
v 0.951518 -0.435960 -0.461362
v 0.853264 -0.452718 -0.461362
v 0.987717 -0.364186 -0.619292
v 0.951518 -0.406129 -0.634552
v 0.853264 -0.421840 -0.641382
v 0.853264 -0.329230 -0.790553
v 0.951518 -0.316828 -0.778152
v 0.987717 -0.286239 -0.747563
v 0.853264 0.329153 -0.132171
v 0.951518 0.316751 -0.144572
v 0.987717 0.286162 -0.175161
v -0.853264 -0.329230 -0.132171
v -0.951518 -0.316828 -0.144572
v -0.987717 -0.286239 -0.175161
v -0.853264 0.329153 -0.790553
v -0.951518 0.316751 -0.778152
v -0.987717 0.286162 -0.747563
v -0.987717 -0.286239 -0.747563
v -0.951518 -0.316828 -0.778152
v -0.853264 -0.329230 -0.790553
v -0.987717 0.286162 -0.175161
v -0.951518 0.316751 -0.144572
v -0.853264 0.329153 -0.132171
v 0.987717 -0.286239 -0.175161
v 0.951518 -0.316828 -0.144572
v 0.853264 -0.329230 -0.132171
v 0.987717 0.286162 -0.747563
v 0.951518 0.316751 -0.778152
v 0.853264 0.329153 -0.790553
v 0.712939 -0.000039 1.018476
v -0.712938 -0.241303 1.018477
v -0.712938 0.242534 1.018477
v 0.712939 -0.241303 1.018477
v -0.712938 0.180697 1.018477
v -0.712938 -0.000039 1.018476
v 0.712939 0.180697 1.018477
v 0.712939 -0.180774 1.018477
v -0.712938 -0.180774 1.018477
v 0.712939 0.242534 1.018477
vt 0.000000 0.000000
vt 0.000000 0.000000
vt 0.000000 0.000000
vt 0.000000 0.000000
vt 0.000000 0.000000
vt 0.000000 0.000000
vt 0.000000 0.000000
vt 0.000000 0.000000
vt 0.000000 0.000000
vt 0.000000 0.000000
vt 0.000000 0.000000
vt 0.000000 0.000000
vt 0.000000 0.000000
vt 0.000000 0.000000
vt 0.000000 0.000000
vt 0.000000 0.000000
vt 0.000000 0.000000
vt 0.000000 0.000000
vt 0.000000 0.000000
vt 0.000000 0.000000
vt 0.000000 0.000000
vt 0.000000 0.000000
vt 0.000000 0.000000
vt 0.000000 0.000000
vt 0.000000 0.000000
vt 0.000000 0.000000
vt 0.000000 0.000000
vt 0.000000 0.000000
vt 0.000000 0.000000
vt 0.000000 0.000000
vt 0.000000 0.000000
vt 0.000000 0.000000
vt 0.000000 0.000000
vt 0.000000 0.000000
vt 0.000000 0.000000
vt 0.000000 0.000000
vt 0.000000 0.000000
vt 0.000000 0.000000
vt 0.000000 0.000000
vt 0.000000 0.000000
vt 0.000000 0.000000
vt 0.000000 0.000000
vt 0.000000 0.000000
vt 0.000000 0.000000
vt 0.000000 0.000000
vt 0.000000 0.000000
vt 0.000000 0.000000
vt 0.000000 0.000000
vt 0.000000 0.000000
vt 0.000000 0.000000
vt 0.000000 0.000000
vt 0.000000 0.000000
vt 0.000000 0.000000
vt 0.000000 0.000000
vt 0.000000 0.000000
vt 0.000000 0.000000
vt 0.000000 0.000000
vt 0.000000 0.000000
vt 0.000000 0.000000
vt 0.000000 0.000000
vt 0.000000 0.000000
vt 0.000000 0.000000
vt 0.000000 0.000000
vt 0.000000 0.000000
vt 0.000000 0.000000
vt 0.000000 0.000000
vt 0.000000 0.000000
vt 0.000000 0.000000
vt 0.000000 0.000000
vt 0.000000 0.000000
vt 0.000000 0.000000
vt 0.000000 0.000000
vt 0.000000 0.000000
vt 0.000000 0.000000
vt 0.000000 0.000000
vt 0.000000 0.000000
vt 0.000000 0.000000
vt 0.000000 0.000000
vt 0.000000 0.000000
vt 0.000000 0.000000
vt 0.000000 0.000000
vt 0.000000 0.000000
vt 0.000000 0.000000
vt 0.000000 0.000000
vt 0.000000 0.000000
vt 0.000000 0.000000
vt 0.000000 0.000000
vt 0.000000 0.000000
vt 0.000000 0.000000
vt 0.000000 0.000000
vt 0.000000 0.000000
vt 0.000000 0.000000
vt 0.000000 0.000000
vt 0.000000 0.000000
vt 0.000000 0.000000
vt 0.000000 0.000000
vt 0.000000 0.000000
vt 0.000000 0.000000
vt 0.000000 0.000000
vt 0.000000 0.000000
vt 0.000000 0.000000
vt 0.000000 0.000000
vt 0.000000 0.000000
vt 0.000000 0.000000
vt 0.000000 0.000000
vt 0.000000 0.000000
vt 0.000000 0.000000
vt 0.000000 0.000000
vt 0.000000 0.000000
vt 0.000000 0.000000
vt 0.000000 0.000000
vt 0.000000 0.000000
vt 0.000000 0.000000
vt 0.000000 0.000000
vt 0.000000 0.000000
vt 0.000000 0.000000
vn 1.0000 0.0000 0.0000
vn 0.0000 0.0000 1.0000
vn 0.0000 -0.5275 -0.8496
vn -1.0000 0.0000 0.0000
vn 0.0000 1.0000 -0.0000
vn 0.0000 0.8496 0.5274
vn 0.0000 -0.5418 0.8405
vn 0.0000 0.8496 -0.5275
vn 0.0000 -0.9856 0.1691
vn 0.0000 0.9856 -0.1691
vn -0.0000 -0.8496 -0.5275
vn 0.0127 0.5274 0.8495
vn 0.0124 0.1690 0.9855
vn 0.0124 -0.1690 0.9855
vn 0.0127 -0.5274 0.8495
vn -0.0000 0.5421 0.8403
vn 0.0000 -1.0000 0.0000
vn 0.0000 -0.1691 -0.9856
vn 0.0000 0.9856 0.1691
vn 0.0000 0.1691 -0.9856
vn -0.0000 -0.9856 -0.1691
vn 0.0000 -0.8496 0.5275
vn 0.0000 0.5274 -0.8496
vn 0.1664 0.1670 -0.9718
vn 0.7746 0.1059 -0.6236
vn 0.1706 0.5200 -0.8369
vn 0.1706 0.8369 -0.5200
vn 0.1664 0.9718 -0.1670
vn 0.1664 0.9718 0.1670
vn 0.1706 0.8369 0.5200
vn 0.1706 0.5200 0.8369
vn 0.1664 0.1670 0.9718
vn 0.1664 -0.1670 0.9718
vn 0.1706 -0.5200 0.8369
vn 0.1706 -0.8369 0.5200
vn 0.1664 -0.9718 0.1670
vn 0.1664 -0.9718 -0.1670
vn 0.1706 -0.8369 -0.5200
vn 0.1706 -0.5200 -0.8369
vn 0.1664 -0.1670 -0.9718
vn 0.7746 -0.1059 -0.6236
vn -0.0124 0.1690 0.9855
vn -0.0124 -0.1690 0.9855
vn -0.0127 -0.5274 0.8495
vn -0.1664 -0.9718 -0.1670
vn -0.7746 -0.6236 -0.1059
vn -0.1664 -0.9718 0.1670
vn -0.7746 -0.6236 0.1059
vn -0.1706 -0.8369 0.5200
vn -0.7643 -0.5493 0.3379
vn -0.1706 -0.5200 0.8369
vn -0.1664 -0.1670 0.9718
vn -0.1664 0.1670 0.9718
vn -0.1706 0.5200 0.8369
vn -0.0127 0.5274 0.8495
vn -0.1706 0.8369 0.5200
vn -0.1664 0.9718 0.1670
vn -0.1664 0.9718 -0.1670
vn -0.1706 0.8369 -0.5200
vn -0.1706 0.5200 -0.8369
vn -0.1664 0.1670 -0.9718
vn -0.1664 -0.1670 -0.9718
vn -0.1706 -0.5200 -0.8369
vn -0.1706 -0.8369 -0.5200
vn -0.7643 -0.5493 -0.3379
vn -0.7643 -0.3379 -0.5493
vn -0.7746 -0.1059 -0.6236
vn -0.7746 0.1059 -0.6236
vn -0.7643 0.3379 -0.5493
vn -0.7643 0.5493 -0.3379
vn -0.7746 0.6236 -0.1059
vn -0.7746 0.6236 0.1059
vn -0.7643 0.5493 0.3379
vn -0.7643 0.3379 0.5493
vn -0.7746 0.1059 0.6236
vn -0.7746 -0.1059 0.6236
vn -0.7643 -0.3379 0.5493
vn 0.7643 0.3379 -0.5493
vn 0.7643 0.5493 -0.3379
vn 0.7746 0.6236 -0.1059
vn 0.7746 0.6236 0.1059
vn 0.7643 0.5493 0.3379
vn 0.7643 0.3379 0.5493
vn 0.7746 0.1059 0.6236
vn 0.7746 -0.1059 0.6236
vn 0.7643 -0.3379 0.5493
vn 0.7643 -0.5493 0.3379
vn 0.7746 -0.6236 0.1059
vn 0.7746 -0.6236 -0.1059
vn 0.7643 -0.5493 -0.3379
vn 0.7643 -0.3379 -0.5493
usemtl None
s off
f 116/1/1 113/2/1 9/3/1 10/4/1
f 115/5/2 114/6/2 107/7/2 112/8/2
f 53/9/3 11/10/3 83/11/3 97/12/3
f 112/8/4 111/13/4 1/14/4 2/15/4
f 112/8/4 2/15/4 4/16/4 115/5/4
f 108/17/4 115/5/4 4/16/4 5/18/4
f 113/2/1 107/7/1 8/19/1 9/3/1
f 114/6/1 7/20/1 8/19/1 107/7/1
f 114/6/1 110/21/1 3/22/1 7/20/1
f 6/23/5 109/24/5 116/1/5 10/4/5
f 115/5/2 108/17/2 110/21/2 114/6/2
f 20/25/6 58/26/6 100/27/6 86/28/6
f 89/29/7 103/30/7 3/22/7 5/18/7
f 92/31/8 64/32/8 26/33/8 106/34/8
f 29/35/9 32/36/9 79/37/9 76/38/9
f 61/39/10 23/40/10 26/33/10 64/32/10
f 82/41/11 35/42/11 97/12/11 83/11/11
f 9/3/12 73/43/12 86/28/12 10/4/12
f 9/3/13 8/19/13 72/44/13 73/43/13
f 8/19/14 7/20/14 71/45/14 72/44/14
f 3/22/15 103/30/15 71/45/15 7/20/15
f 6/23/16 10/4/16 86/28/16 100/27/16
f 110/21/17 108/17/17 5/18/17 3/22/17
f 11/10/18 53/9/18 54/46/18 12/47/18
f 61/39/19 58/26/19 20/25/19 23/40/19
f 54/46/20 55/48/20 13/49/20 12/47/20
f 79/37/21 32/36/21 35/42/21 82/41/21
f 89/29/22 29/35/22 76/38/22 103/30/22
f 55/48/23 92/31/23 106/34/23 13/49/23
f 16/50/24 15/51/24 12/47/24 13/49/24
f 19/52/25 18/53/25 15/51/25 16/50/25
f 105/54/26 16/50/26 13/49/26 106/34/26
f 105/54/27 106/34/27 26/33/27 27/55/27
f 26/33/28 23/40/28 24/56/28 27/55/28
f 20/25/29 21/57/29 24/56/29 23/40/29
f 87/58/30 21/57/30 20/25/30 86/28/30
f 86/28/31 73/43/31 70/59/31 87/58/31
f 72/44/32 69/60/32 70/59/32 73/43/32
f 71/45/33 68/61/33 69/60/33 72/44/33
f 103/30/34 102/62/34 68/61/34 71/45/34
f 75/63/35 102/62/35 103/30/35 76/38/35
f 75/63/36 76/38/36 79/37/36 78/64/36
f 78/64/37 79/37/37 82/41/37 81/65/37
f 81/65/38 82/41/38 83/11/38 84/66/38
f 11/10/39 14/67/39 84/66/39 83/11/39
f 14/67/40 11/10/40 12/47/40 15/51/40
f 17/68/41 14/67/41 15/51/41 18/53/41
f 1/14/42 40/69/42 39/70/42 2/15/42
f 38/71/43 4/16/43 2/15/43 39/70/43
f 4/16/44 38/71/44 89/29/44 5/18/44
f 32/36/45 33/72/45 36/73/45 35/42/45
f 36/73/46 33/72/46 34/74/46 37/75/46
f 32/36/47 29/35/47 30/76/47 33/72/47
f 34/74/48 33/72/48 30/76/48 31/77/48
f 90/78/49 30/76/49 29/35/49 89/29/49
f 31/77/50 30/76/50 90/78/50 91/79/50
f 38/71/51 41/80/51 90/78/51 89/29/51
f 38/71/52 39/70/52 42/81/52 41/80/52
f 42/81/53 39/70/53 40/69/53 43/82/53
f 43/82/54 40/69/54 100/27/54 99/83/54
f 40/69/55 1/14/55 6/23/55 100/27/55
f 100/27/56 58/26/56 57/84/56 99/83/56
f 57/84/57 58/26/57 61/39/57 60/85/57
f 60/85/58 61/39/58 64/32/58 63/86/58
f 93/87/59 63/86/59 64/32/59 92/31/59
f 55/48/60 52/88/60 93/87/60 92/31/60
f 54/46/61 51/89/61 52/88/61 55/48/61
f 53/9/62 50/90/62 51/89/62 54/46/62
f 97/12/63 96/91/63 50/90/63 53/9/63
f 96/91/64 97/12/64 35/42/64 36/73/64
f 36/73/65 37/75/65 95/92/65 96/91/65
f 95/92/66 47/93/66 50/90/66 96/91/66
f 51/89/67 50/90/67 47/93/67 48/94/67
f 52/88/68 51/89/68 48/94/68 49/95/68
f 93/87/69 52/88/69 49/95/69 94/96/69
f 62/97/70 63/86/70 93/87/70 94/96/70
f 63/86/71 62/97/71 59/98/71 60/85/71
f 56/99/72 57/84/72 60/85/72 59/98/72
f 56/99/73 98/100/73 99/83/73 57/84/73
f 43/82/74 99/83/74 98/100/74 46/101/74
f 46/101/75 45/102/75 42/81/75 43/82/75
f 41/80/76 42/81/76 45/102/76 44/103/76
f 90/78/77 41/80/77 44/103/77 91/79/77
f 104/104/78 19/52/78 16/50/78 105/54/78
f 104/104/79 105/54/79 27/55/79 28/105/79
f 24/56/80 25/106/80 28/105/80 27/55/80
f 24/56/81 21/57/81 22/107/81 25/106/81
f 22/107/82 21/57/82 87/58/82 88/108/82
f 87/58/83 70/59/83 67/109/83 88/108/83
f 66/110/84 67/109/84 70/59/84 69/60/84
f 68/61/85 65/111/85 66/110/85 69/60/85
f 101/112/86 65/111/86 68/61/86 102/62/86
f 75/63/87 74/113/87 101/112/87 102/62/87
f 78/64/88 77/114/88 74/113/88 75/63/88
f 80/115/89 77/114/89 78/64/89 81/65/89
f 85/116/90 80/115/90 81/65/90 84/66/90
f 84/66/91 14/67/91 17/68/91 85/116/91
f 77/114/1 80/115/1 85/116/1 17/68/1 18/53/1 19/52/1 104/104/1 28/105/1 25/106/1 22/107/1 88/108/1 67/109/1 66/110/1 65/111/1 101/112/1 74/113/1
f 34/74/4 31/77/4 91/79/4 44/103/4 45/102/4 46/101/4 98/100/4 56/99/4 59/98/4 62/97/4 94/96/4 49/95/4 48/94/4 47/93/4 95/92/4 37/75/4
f 107/7/2 113/2/2 111/13/2 112/8/2
f 6/23/4 1/14/4 111/13/4 109/24/4
f 109/24/2 111/13/2 113/2/2 116/1/2
