# Blender v3.0.0 OBJ File: 'basebelt8.blend'
# www.blender.org
mtllib motormid.mtl
o motormiddle_Cube.004
v 0.712939 -0.000262 1.485487
v -0.712939 -0.241526 1.485487
v -0.712939 0.242311 1.485487
v 0.712939 -0.241526 1.485487
v -0.712939 0.180474 1.485487
v -0.712939 -0.000262 1.485487
v -0.661926 0.242554 0.374149
v 0.712939 -0.180755 0.411771
v 0.712939 0.180474 1.485487
v 0.712939 -0.000020 0.442759
v 0.712939 -0.180997 1.485487
v -0.712939 -0.180997 1.485487
v 0.661926 0.242554 0.374149
v 0.712939 0.242311 1.485487
v 0.712939 0.180715 0.411771
v 0.853264 -0.180040 -0.433478
v 0.712939 -0.000262 -1.441023
v 0.853263 -0.000020 -0.464356
v -0.712939 -0.000262 -1.441023
v 0.853263 0.180000 -0.433478
v 0.712939 -0.180997 -1.441023
v 0.951518 -0.173210 -0.417766
v -0.712939 -0.180997 -1.441023
v 0.712939 -0.241526 -1.441023
v 0.951518 -0.000020 -0.447597
v -0.712939 -0.241526 -1.441023
v 0.951518 0.173171 -0.417766
v 0.987717 -0.157950 -0.375823
v -0.712939 0.242311 -1.441023
v 0.712939 0.242311 -1.441023
v 0.987717 -0.000020 -0.402205
v -0.712939 0.180474 -1.441023
v 0.987717 0.157910 -0.375823
v 0.712939 0.180474 -1.441023
v 0.853264 0.421782 0.168343
v 0.951518 0.406070 0.161514
v 0.987717 0.364127 0.146254
v 0.853263 0.452660 -0.011676
v 0.951518 0.435901 -0.011676
v 0.987717 0.390509 -0.011676
v 0.853263 0.421782 -0.191696
v 0.951518 0.406070 -0.184867
v 0.987717 0.364127 -0.169606
v -0.853264 -0.421822 0.168343
v -0.951518 -0.406110 0.161514
v -0.987717 -0.364167 0.146254
v -0.853264 -0.452700 -0.011676
v -0.951518 -0.435941 -0.011676
v -0.987717 -0.390548 -0.011676
v -0.853264 -0.421822 -0.191696
v -0.951518 -0.406110 -0.184867
v -0.987717 -0.364167 -0.169606
v -0.853264 -0.180040 0.410125
v -0.853264 -0.000020 0.441003
v -0.853264 0.180000 0.410125
v -0.951518 -0.173210 0.394414
v -0.951518 -0.000020 0.424245
v -0.951518 0.173171 0.394414
v -0.987717 -0.157950 0.352471
v -0.987717 -0.000020 0.378852
v -0.987717 0.157910 0.352471
v -0.987717 -0.157950 -0.375823
v -0.987717 -0.000020 -0.402205
v -0.987717 0.157910 -0.375823
v -0.951518 -0.173210 -0.417766
v -0.951518 -0.000020 -0.447597
v -0.951518 0.173171 -0.417766
v -0.853264 -0.180040 -0.433478
v -0.853264 -0.000020 -0.464356
v -0.853264 0.180000 -0.433478
v -0.987717 0.364127 0.146254
v -0.951518 0.406070 0.161514
v -0.853264 0.421782 0.168343
v -0.987717 0.390509 -0.011676
v -0.951518 0.435901 -0.011676
v -0.853264 0.452660 -0.011676
v -0.987717 0.364127 -0.169606
v -0.951518 0.406070 -0.184867
v -0.853264 0.421782 -0.191696
v 0.987717 -0.157950 0.352471
v 0.987717 -0.000020 0.378852
v 0.987717 0.157910 0.352471
v 0.951518 -0.173210 0.394414
v 0.951518 -0.000020 0.424245
v 0.951518 0.173171 0.394414
v 0.853263 -0.180040 0.410125
v 0.853263 -0.000020 0.441003
v 0.853263 0.180000 0.410125
v 0.987717 -0.364167 0.146254
v 0.951518 -0.406110 0.161514
v 0.853263 -0.421822 0.168343
v 0.987717 -0.390548 -0.011676
v 0.951518 -0.435941 -0.011676
v 0.853263 -0.452700 -0.011676
v 0.987717 -0.364167 -0.169606
v 0.951518 -0.406110 -0.184867
v 0.853263 -0.421822 -0.191696
v 0.661925 -0.424066 0.169319
v 0.661926 -0.455094 -0.011676
v 0.661926 -0.424066 -0.192671
v 0.661925 0.424026 0.169319
v 0.661926 0.455054 -0.011676
v 0.661926 0.424026 -0.192671
v 0.853263 -0.329211 -0.340867
v 0.951518 -0.316810 -0.328466
v 0.987717 -0.286221 -0.297877
v 0.853263 0.329171 0.317515
v 0.951518 0.316770 0.305113
v 0.987717 0.286181 0.274525
v -0.661926 -0.424066 0.169319
v -0.661926 -0.455094 -0.011676
v -0.661926 -0.424066 -0.192671
v -0.661926 0.424026 0.169319
v -0.661926 0.455054 -0.011676
v -0.661926 0.424026 -0.192671
v -0.853264 -0.329211 0.317515
v -0.951518 -0.316810 0.305113
v -0.987717 -0.286221 0.274525
v -0.853264 0.329171 -0.340867
v -0.951518 0.316770 -0.328466
v -0.987717 0.286181 -0.297877
v -0.987717 -0.286221 -0.297877
v -0.951518 -0.316810 -0.328466
v -0.853264 -0.329211 -0.340867
v -0.987717 0.286181 0.274525
v -0.951518 0.316770 0.305113
v -0.853264 0.329171 0.317515
v 0.987717 -0.286221 0.274525
v 0.951518 -0.316810 0.305113
v 0.853263 -0.329211 0.317515
v 0.987717 0.286181 -0.297877
v 0.951518 0.316770 -0.328466
v 0.853263 0.329171 -0.340867
v 0.661925 -0.330983 -0.342639
v 0.661926 0.330943 0.319286
v 0.661925 -0.330983 0.319286
v 0.661925 0.330943 -0.342639
v -0.661926 -0.330983 -0.342639
v -0.661926 0.330943 0.319286
v -0.661926 -0.330983 0.319286
v -0.661926 0.330943 -0.342639
v 0.661925 -0.241526 -0.398164
v -0.661926 -0.241526 0.374812
v 0.712939 -0.241526 -0.397404
v 0.712939 -0.241526 0.374052
v 0.661926 -0.241526 0.374812
v -0.712939 -0.180755 0.411771
v -0.712939 -0.241526 0.374052
v -0.712939 -0.241526 -0.397404
v -0.661926 -0.241526 -0.398164
v 0.712939 -0.180755 -0.435124
v 0.712939 -0.000020 -0.466112
v 0.712939 -0.000262 -0.466070
v 0.712939 -0.000020 0.442759
v 0.712939 -0.000262 0.442718
v 0.712939 0.242311 -0.396887
v 0.712939 0.242311 0.373540
v 0.712939 0.180715 -0.435124
v -0.712939 0.180715 0.411771
v -0.712939 -0.000020 0.442759
v -0.712939 -0.000262 0.442718
v 0.712939 0.180715 0.411771
v 0.712939 0.180716 0.411771
v -0.662126 0.242311 0.374297
v -0.712939 0.242311 0.373537
v 0.712939 -0.180755 0.411771
v 0.712939 -0.180755 0.411771
v -0.712939 -0.180755 -0.435124
v -0.712939 -0.000262 -0.466070
v -0.712939 -0.000020 -0.466112
v -0.712939 0.180715 -0.435124
v -0.712939 0.242311 -0.396887
v -0.661926 0.242311 -0.397652
v 0.662126 0.242311 0.374297
v 0.661926 0.242311 -0.397652
vt 0.000000 0.000000
vt 0.000000 0.000000
vt 0.000000 0.000000
vt 0.000000 0.000000
vt 0.000000 0.000000
vt 0.000000 0.000000
vt 0.000000 0.000000
vt 0.000000 0.000000
vt 0.000000 0.000000
vt 0.000000 0.000000
vt 0.000000 0.000000
vt 0.000000 0.000000
vt 0.000000 0.000000
vt 0.000000 0.000000
vt 0.000000 0.000000
vt 0.000000 0.000000
vt 0.000000 0.000000
vt 0.000000 0.000000
vt 0.000000 0.000000
vt 0.000000 0.000000
vt 0.000000 0.000000
vt 0.000000 0.000000
vt 0.000000 0.000000
vt 0.000000 0.000000
vt 0.000000 0.000000
vt 0.000000 0.000000
vt 0.000000 0.000000
vt 0.000000 0.000000
vt 0.000000 0.000000
vt 0.000000 0.000000
vt 0.000000 0.000000
vt 0.000000 0.000000
vt 0.000000 0.000000
vt 0.000000 0.000000
vt 0.000000 0.000000
vt 0.000000 0.000000
vt 0.000000 0.000000
vt 0.000000 0.000000
vt 0.000000 0.000000
vt 0.000000 0.000000
vt 0.000000 0.000000
vt 0.000000 0.000000
vt 0.000000 0.000000
vt 0.000000 0.000000
vt 0.000000 0.000000
vt 0.000000 0.000000
vt 0.000000 0.000000
vt 0.000000 0.000000
vt 0.000000 0.000000
vt 0.000000 0.000000
vt 0.000000 0.000000
vt 0.000000 0.000000
vt 0.000000 0.000000
vt 0.000000 0.000000
vt 0.000000 0.000000
vt 0.000000 0.000000
vt 0.000000 0.000000
vt 0.000000 0.000000
vt 0.000000 0.000000
vt 0.000000 0.000000
vt 0.000000 0.000000
vt 0.000000 0.000000
vt 0.000000 0.000000
vt 0.000000 0.000000
vt 0.000000 0.000000
vt 0.000000 0.000000
vt 0.000000 0.000000
vt 0.000000 0.000000
vt 0.000000 0.000000
vt 0.000000 0.000000
vt 0.000000 0.000000
vt 0.000000 0.000000
vt 0.000000 0.000000
vt 0.000000 0.000000
vt 0.000000 0.000000
vt 0.000000 0.000000
vt 0.000000 0.000000
vt 0.000000 0.000000
vt 0.000000 0.000000
vt 0.000000 0.000000
vt 0.000000 0.000000
vt 0.000000 0.000000
vt 0.000000 0.000000
vt 0.000000 0.000000
vt 0.000000 0.000000
vt 0.000000 0.000000
vt 0.000000 0.000000
vt 0.000000 0.000000
vt 0.000000 0.000000
vt 0.000000 0.000000
vt 0.000000 0.000000
vt 0.000000 0.000000
vt 0.000000 0.000000
vt 0.000000 0.000000
vt 0.000000 0.000000
vt 0.000000 0.000000
vt 0.000000 0.000000
vt 0.000000 0.000000
vt 0.000000 0.000000
vt 0.000000 0.000000
vt 0.000000 0.000000
vt 0.000000 0.000000
vt 0.000000 0.000000
vt 0.000000 0.000000
vt 0.000000 0.000000
vt 0.000000 0.000000
vt 0.000000 0.000000
vt 0.000000 0.000000
vt 0.000000 0.000000
vt 0.000000 0.000000
vt 0.000000 0.000000
vt 0.000000 0.000000
vt 0.000000 0.000000
vt 0.000000 0.000000
vt 0.000000 0.000000
vt 0.000000 0.000000
vt 0.000000 0.000000
vt 0.000000 0.000000
vt 0.000000 0.000000
vt 0.000000 0.000000
vt 0.000000 0.000000
vt 0.000000 0.000000
vt 0.000000 0.000000
vt 0.000000 0.000000
vt 0.000000 0.000000
vt 0.000000 0.000000
vt 0.000000 0.000000
vt 0.000000 0.000000
vt 0.000000 0.000000
vt 0.000000 0.000000
vt 0.000000 0.000000
vt 0.000000 0.000000
vt 0.000000 0.000000
vt 0.000000 0.000000
vt 0.000000 0.000000
vt 0.000000 0.000000
vt 0.000000 0.000000
vt 0.000000 0.000000
vt 0.000000 0.000000
vt 0.000000 0.000000
vt 0.000000 0.000000
vt 0.000000 0.000000
vt 0.000000 0.000000
vt 0.000000 0.000000
vt 0.000000 0.000000
vt 0.000000 0.000000
vt 0.000000 0.000000
vt 0.000000 0.000000
vt 0.000000 0.000000
vt 0.000000 0.000000
vt 0.000000 0.000000
vt 0.000000 0.000000
vt 0.000000 0.000000
vt 0.000000 0.000000
vt 0.000000 0.000000
vt 0.000000 0.000000
vt 0.000000 0.000000
vt 0.000000 0.000000
vt 0.000000 0.000000
vt 0.000000 0.000000
vt 0.000000 0.000000
vt 0.000000 0.000000
vt 0.000000 0.000000
vt 0.000000 0.000000
vt 0.000000 0.000000
vt 0.000000 0.000000
vt 0.000000 0.000000
vt 0.000000 0.000000
vt 0.000000 0.000000
vt 0.000000 0.000000
vt 0.000000 0.000000
vt 0.000000 0.000000
vt 0.000000 0.000000
vt 0.000000 0.000000
vt 0.000000 0.000000
vn 0.0000 -1.0000 0.0000
vn 0.0000 0.0000 -1.0000
vn 1.0000 -0.0000 0.0000
vn -1.0000 -0.0000 0.0000
vn 0.0000 0.0000 1.0000
vn 0.0000 1.0000 -0.0000
vn -0.0000 -0.8496 -0.5274
vn 0.0000 -0.9856 -0.1690
vn 0.0000 -0.5274 0.8496
vn 0.0000 -0.8496 0.5274
vn -0.0000 -0.5274 -0.8496
vn 0.0000 -0.9856 0.1690
vn -0.0000 0.5274 -0.8496
vn 0.0000 0.8496 -0.5274
vn 0.0000 0.9856 -0.1690
vn 0.0000 0.9856 0.1690
vn 0.0000 0.8496 0.5274
vn 0.0000 0.5274 0.8496
vn 0.0124 0.9855 0.1690
vn 0.0127 0.8495 0.5274
vn 0.0124 0.9855 -0.1690
vn 0.0127 0.8495 -0.5274
vn 0.0127 0.5274 -0.8495
vn 0.0000 0.5197 0.8543
vn 0.0000 0.5812 0.8137
vn 0.0000 0.1704 0.9854
vn 0.0124 0.1690 0.9855
vn 0.0124 -0.1690 0.9855
vn -0.0127 -0.5274 0.8495
vn 0.0127 -0.8495 0.5274
vn 0.0124 -0.9855 0.1690
vn 0.0124 -0.9855 -0.1690
vn 0.0127 -0.8495 -0.5274
vn 0.0127 -0.5274 -0.8495
vn 0.0124 -0.1690 -0.9855
vn 0.0124 0.1690 -0.9855
vn 0.1664 0.1670 -0.9718
vn 0.7746 0.1059 -0.6236
vn 0.1706 0.5200 -0.8369
vn 0.1706 0.8369 -0.5200
vn 0.1664 0.9718 -0.1670
vn 0.1664 0.9718 0.1670
vn 0.1706 0.8369 0.5200
vn 0.1706 0.5200 0.8369
vn 0.1664 0.1670 0.9718
vn 0.1664 -0.1670 0.9718
vn 0.1706 -0.5200 0.8369
vn 0.1706 -0.8369 0.5200
vn 0.1664 -0.9718 0.1670
vn 0.1664 -0.9718 -0.1670
vn 0.1706 -0.8369 -0.5200
vn 0.1706 -0.5200 -0.8369
vn 0.1664 -0.1670 -0.9718
vn 0.7746 -0.1059 -0.6236
vn -0.0124 0.1690 0.9855
vn -0.0124 -0.1690 0.9855
vn -0.0127 0.5274 0.8495
vn 0.0000 -0.5547 0.8321
vn -0.0127 -0.8495 0.5274
vn -0.0124 -0.9855 0.1690
vn -0.0124 -0.9855 -0.1690
vn -0.1664 -0.9718 -0.1670
vn -0.7746 -0.6236 -0.1059
vn -0.1664 -0.9718 0.1670
vn -0.7746 -0.6236 0.1059
vn -0.1706 -0.8369 0.5200
vn -0.7643 -0.5493 0.3379
vn -0.1706 -0.5200 0.8369
vn -0.1664 -0.1670 0.9718
vn -0.1664 0.1670 0.9718
vn -0.1706 0.5200 0.8369
vn -0.0127 -0.8495 -0.5274
vn -0.0127 -0.5274 -0.8495
vn -0.0124 -0.1690 -0.9855
vn -0.0124 0.1690 -0.9855
vn -0.0127 0.5274 -0.8495
vn -0.0127 0.8495 -0.5274
vn -0.0124 0.9855 -0.1690
vn -0.0124 0.9855 0.1690
vn -0.0127 0.8495 0.5274
vn 0.0127 0.5274 0.8495
vn 0.0252 -0.1664 0.9857
vn -0.1706 0.8369 0.5200
vn -0.1664 0.9718 0.1670
vn -0.1664 0.9718 -0.1670
vn -0.1706 0.8369 -0.5200
vn -0.1706 0.5200 -0.8369
vn -0.1664 0.1670 -0.9718
vn -0.1664 -0.1670 -0.9718
vn -0.1706 -0.5200 -0.8369
vn -0.1706 -0.8369 -0.5200
vn -0.7643 -0.5493 -0.3379
vn -0.7643 -0.3379 -0.5493
vn -0.7746 -0.1059 -0.6236
vn -0.7746 0.1059 -0.6236
vn -0.7643 0.3379 -0.5493
vn -0.7643 0.5493 -0.3379
vn -0.7746 0.6236 -0.1059
vn -0.7746 0.6236 0.1059
vn -0.7643 0.5493 0.3379
vn -0.7643 0.3379 0.5493
vn -0.7746 0.1059 0.6236
vn -0.7746 -0.1059 0.6236
vn -0.7643 -0.3379 0.5493
vn 0.7643 0.3379 -0.5493
vn 0.7643 0.5493 -0.3379
vn 0.7746 0.6236 -0.1059
vn 0.7746 0.6236 0.1059
vn 0.7643 0.5493 0.3379
vn 0.7643 0.3379 0.5493
vn 0.7746 0.1059 0.6236
vn 0.7746 -0.1059 0.6236
vn 0.7643 -0.3379 0.5493
vn 0.7643 -0.5493 0.3379
vn 0.7746 -0.6236 0.1059
vn 0.7746 -0.6236 -0.1059
vn 0.7643 -0.5493 -0.3379
vn 0.7643 -0.3379 -0.5493
vn 0.0127 -0.5274 0.8495
usemtl None
s off
f 145/1/1 4/2/1 2/3/1 148/4/1 143/5/1 146/6/1
f 149/7/1 26/8/1 24/9/1 144/10/1 142/11/1 150/12/1
f 30/13/2 34/14/2 32/15/2 29/16/2
f 17/17/2 19/18/2 32/15/2 34/14/2
f 19/18/2 17/17/2 21/19/2 23/20/2
f 23/20/2 21/19/2 24/9/2 26/8/2
f 152/21/3 153/22/3 17/17/3 34/14/3 30/13/3 156/23/3 158/24/3
f 157/25/3 14/26/3 9/27/3 1/28/3 155/29/3 154/30/3 162/31/3 163/32/3
f 24/9/3 21/19/3 17/17/3 153/22/3 151/33/3 144/10/3
f 1/28/3 11/34/3 4/2/3 145/1/3 166/35/3 167/36/3 155/29/3
f 148/4/4 2/3/4 12/37/4 6/38/4 161/39/4 147/40/4
f 23/20/4 26/8/4 149/7/4 168/41/4 169/42/4 19/18/4
f 161/39/4 6/38/4 5/43/4 3/44/4 165/45/4 159/46/4 160/47/4
f 172/48/4 29/16/4 32/15/4 19/18/4 169/42/4 170/49/4 171/50/4
f 12/37/5 2/3/5 4/2/5 11/34/5
f 6/38/5 12/37/5 11/34/5 1/28/5
f 1/28/5 9/27/5 5/43/5 6/38/5
f 14/26/5 3/44/5 5/43/5 9/27/5
f 165/45/6 3/44/6 14/26/6 157/25/6 174/51/6 164/52/6
f 30/13/6 29/16/6 172/48/6 173/53/6 175/54/6 156/23/6
f 100/55/7 112/56/7 138/57/7 134/58/7
f 100/55/8 99/59/8 111/60/8 112/56/8
f 143/5/9 140/61/9 136/62/9 146/6/9
f 110/63/10 98/64/10 136/62/10 140/61/10
f 142/11/11 134/58/11 138/57/11 150/12/11
f 99/59/12 98/64/12 110/63/12 111/60/12
f 141/65/13 137/66/13 175/54/13 173/53/13
f 115/67/14 103/68/14 137/66/14 141/65/14
f 114/69/15 102/70/15 103/68/15 115/67/15
f 114/69/16 113/71/16 101/72/16 102/70/16
f 113/71/17 139/73/17 135/74/17 101/72/17
f 139/73/18 7/75/18 13/76/18 135/74/18
f 35/77/19 38/78/19 102/70/19 101/72/19
f 135/74/20 107/79/20 35/77/20 101/72/20
f 102/70/21 38/78/21 41/80/21 103/68/21
f 103/68/22 41/80/22 133/81/22 137/66/22
f 175/54/23 137/66/23 133/81/23 20/82/23 158/24/23 156/23/23
f 174/51/24 13/76/24 7/75/24 164/52/24
f 15/83/25 163/32/25 162/31/25
f 154/30/26 10/84/26 15/83/26 162/31/26
f 15/83/27 10/84/27 87/85/27 88/86/27
f 10/84/28 8/87/28 86/88/28 87/85/28
f 53/89/29 116/90/29 140/61/29 143/5/29 148/4/29 147/40/29
f 136/62/30 98/64/30 91/91/30 130/92/30
f 99/59/31 94/93/31 91/91/31 98/64/31
f 100/55/32 97/94/32 94/93/32 99/59/32
f 104/95/33 97/94/33 100/55/33 134/58/33
f 16/96/34 104/95/34 134/58/34 142/11/34 144/10/34 151/33/34
f 153/22/35 152/21/35 18/97/35 16/96/35 151/33/35
f 158/24/36 20/82/36 18/97/36 152/21/36
f 27/98/37 25/99/37 18/97/37 20/82/37
f 33/100/38 31/101/38 25/99/38 27/98/38
f 132/102/39 27/98/39 20/82/39 133/81/39
f 132/102/40 133/81/40 41/80/40 42/103/40
f 41/80/41 38/78/41 39/104/41 42/103/41
f 35/77/42 36/105/42 39/104/42 38/78/42
f 108/106/43 36/105/43 35/77/43 107/79/43
f 107/79/44 88/86/44 85/107/44 108/106/44
f 87/85/45 84/108/45 85/107/45 88/86/45
f 86/88/46 83/109/46 84/108/46 87/85/46
f 130/92/47 129/110/47 83/109/47 86/88/47
f 90/111/48 129/110/48 130/92/48 91/91/48
f 90/111/49 91/91/49 94/93/49 93/112/49
f 93/112/50 94/93/50 97/94/50 96/113/50
f 96/113/51 97/94/51 104/95/51 105/114/51
f 16/96/52 22/115/52 105/114/52 104/95/52
f 22/115/53 16/96/53 18/97/53 25/99/53
f 28/116/54 22/115/54 25/99/54 31/101/54
f 159/46/55 55/117/55 54/118/55 160/47/55
f 160/47/56 54/118/56 53/89/56 147/40/56 161/39/56
f 7/75/57 139/73/57 127/119/57 55/117/57 159/46/57 165/45/57 164/52/57
f 166/35/58 8/87/58 167/36/58
f 140/61/59 116/90/59 44/120/59 110/63/59
f 110/63/60 44/120/60 47/121/60 111/60/60
f 111/60/61 47/121/61 50/122/61 112/56/61
f 47/121/62 48/123/62 51/124/62 50/122/62
f 51/124/63 48/123/63 49/125/63 52/126/63
f 47/121/64 44/120/64 45/127/64 48/123/64
f 49/125/65 48/123/65 45/127/65 46/128/65
f 117/129/66 45/127/66 44/120/66 116/90/66
f 46/128/67 45/127/67 117/129/67 118/130/67
f 53/89/68 56/131/68 117/129/68 116/90/68
f 53/89/69 54/118/69 57/132/69 56/131/69
f 57/132/70 54/118/70 55/117/70 58/133/70
f 58/133/71 55/117/71 127/119/71 126/134/71
f 138/57/72 112/56/72 50/122/72 124/135/72
f 150/12/73 138/57/73 124/135/73 68/136/73 168/41/73 149/7/73
f 68/136/74 69/137/74 170/49/74 169/42/74 168/41/74
f 69/137/75 70/138/75 171/50/75 170/49/75
f 171/50/76 70/138/76 119/139/76 141/65/76 173/53/76 172/48/76
f 119/139/77 79/140/77 115/67/77 141/65/77
f 76/141/78 114/69/78 115/67/78 79/140/78
f 76/141/79 73/142/79 113/71/79 114/69/79
f 113/71/80 73/142/80 127/119/80 139/73/80
f 163/32/81 15/83/81 88/86/81 107/79/81 135/74/81 13/76/81 174/51/81 157/25/81
f 167/36/82 8/87/82 10/84/82 154/30/82 155/29/82
f 127/119/83 73/142/83 72/143/83 126/134/83
f 72/143/84 73/142/84 76/141/84 75/144/84
f 75/144/85 76/141/85 79/140/85 78/145/85
f 120/146/86 78/145/86 79/140/86 119/139/86
f 70/138/87 67/147/87 120/146/87 119/139/87
f 69/137/88 66/148/88 67/147/88 70/138/88
f 68/136/89 65/149/89 66/148/89 69/137/89
f 124/135/90 123/150/90 65/149/90 68/136/90
f 123/150/91 124/135/91 50/122/91 51/124/91
f 51/124/92 52/126/92 122/151/92 123/150/92
f 122/151/93 62/152/93 65/149/93 123/150/93
f 66/148/94 65/149/94 62/152/94 63/153/94
f 67/147/95 66/148/95 63/153/95 64/154/95
f 120/146/96 67/147/96 64/154/96 121/155/96
f 77/156/97 78/145/97 120/146/97 121/155/97
f 78/145/98 77/156/98 74/157/98 75/144/98
f 71/158/99 72/143/99 75/144/99 74/157/99
f 71/158/100 125/159/100 126/134/100 72/143/100
f 58/133/101 126/134/101 125/159/101 61/160/101
f 61/160/102 60/161/102 57/132/102 58/133/102
f 56/131/103 57/132/103 60/161/103 59/162/103
f 117/129/104 56/131/104 59/162/104 118/130/104
f 131/163/105 33/100/105 27/98/105 132/102/105
f 131/163/106 132/102/106 42/103/106 43/164/106
f 39/104/107 40/165/107 43/164/107 42/103/107
f 39/104/108 36/105/108 37/166/108 40/165/108
f 37/166/109 36/105/109 108/106/109 109/167/109
f 108/106/110 85/107/110 82/168/110 109/167/110
f 81/169/111 82/168/111 85/107/111 84/108/111
f 83/109/112 80/170/112 81/169/112 84/108/112
f 128/171/113 80/170/113 83/109/113 129/110/113
f 90/111/114 89/172/114 128/171/114 129/110/114
f 93/112/115 92/173/115 89/172/115 90/111/115
f 95/174/116 92/173/116 93/112/116 96/113/116
f 106/175/117 95/174/117 96/113/117 105/114/117
f 105/114/118 22/115/118 28/116/118 106/175/118
f 95/174/3 106/175/3 28/116/3 31/101/3 33/100/3 131/163/3 43/164/3 40/165/3 37/166/3 109/167/3 82/168/3 81/169/3 80/170/3 128/171/3 89/172/3 92/173/3
f 77/156/4 121/155/4 64/154/4 63/153/4 62/152/4 122/151/4 52/126/4 49/125/4 46/128/4 118/130/4 59/162/4 60/161/4 61/160/4 125/159/4 71/158/4 74/157/4
f 136/62/119 130/92/119 86/88/119 8/87/119 166/35/119 145/1/119 146/6/119
