# Blender v3.0.0 OBJ File: ''
# www.blender.org
mtllib thing.mtl
o Cube
v 0.836587 0.836587 -1.000000
v 0.836587 1.000000 -0.836587
v 1.000000 0.836587 -0.836587
v 0.836587 -0.836587 -1.000000
v 1.000000 -0.836587 -0.836587
v 0.836587 -1.000000 -0.836587
v 0.836587 0.836587 1.000000
v 1.000000 0.836587 0.836587
v 0.836587 1.000000 0.836587
v 0.836587 -0.836587 1.000000
v 0.836587 -1.000000 0.836587
v 1.000000 -0.836587 0.836587
v -1.000000 0.836587 -0.836587
v -0.836587 1.000000 -0.836587
v -0.836587 0.836587 -1.000000
v -0.836587 -0.836587 -1.000000
v -0.836587 -1.000000 -0.836587
v -1.000000 -0.836587 -0.836587
v -1.000000 0.836587 0.836587
v -0.836587 0.836587 1.000000
v -0.836587 1.000000 0.836587
v -1.000000 -0.836587 0.836587
v -0.836587 -1.000000 0.836587
v -0.836587 -0.836587 1.000000
v -1.000000 0.836587 -0.500000
v -0.836587 1.000000 -0.500000
v 1.000000 -0.836587 -0.663413
v 0.836587 -0.836587 -0.500000
v 0.836587 -1.000000 -0.663413
v -1.000000 -0.836587 -0.663413
v -0.836587 -1.000000 -0.663413
v -0.836587 -0.836587 -0.500000
v 0.836587 1.000000 -0.500000
v 1.000000 0.836587 -0.500000
v -1.000000 -0.836587 0.658868
v -0.836587 -0.836587 0.495455
v -0.836587 -1.000000 0.658868
v 1.000000 0.836587 0.495455
v 0.836587 1.000000 0.495455
v -1.000000 0.836587 0.495455
v -0.836587 1.000000 0.495455
v 1.000000 -0.836587 0.658868
v 0.836587 -1.000000 0.658868
v 0.836587 -0.836587 0.495455
v -1.000000 0.500000 0.836587
v -0.836587 0.500000 1.000000
v 1.000000 0.500000 -0.836587
v 0.836587 0.500000 -1.000000
v 0.836587 0.500000 1.000000
v 1.000000 0.500000 0.836587
v -0.836587 0.500000 -1.000000
v -1.000000 0.500000 -0.836587
v 0.836587 0.500000 -0.500000
v 1.000000 0.663413 -0.663413
v -1.000000 0.663413 -0.663413
v -0.836587 0.500000 -0.500000
v -0.836587 0.500000 0.495455
v -1.000000 0.663413 0.658868
v 1.000000 0.663413 0.658868
v 0.836587 0.500000 0.495455
vt 0.582927 0.707358
vt 0.604573 0.686932
vt 0.604573 0.729573
vt 0.562500 0.729573
vt 0.645427 0.686932
vt 0.854573 0.686932
vt 0.854573 0.729573
vt 0.645427 0.729573
vt 0.582927 0.207927
vt 0.562500 0.229573
vt 0.395427 0.229573
vt 0.395427 0.207927
vt 0.395427 0.729573
vt 0.395427 0.707358
vt 0.562500 0.770427
vt 0.562500 0.979573
vt 0.395427 0.979573
vt 0.395427 0.770427
vt 0.562500 0.270427
vt 0.562500 0.479573
vt 0.395427 0.479573
vt 0.395427 0.270427
vt 0.395427 0.218140
vt 0.395427 0.531860
vt 0.562500 0.531860
vt 0.562500 0.218140
vt 0.604573 0.562500
vt 0.582927 0.542073
vt 0.395427 0.635958
vt 0.395427 0.114042
vt 0.562500 0.114042
vt 0.562500 0.635958
vt 0.562500 0.520427
vt 0.604573 0.520427
vt 0.395427 0.542073
vt 0.395427 0.520427
vt 0.604573 0.270427
vt 0.604573 0.479573
vt 0.395427 0.020427
vt 0.562500 0.020427
vt 0.582927 0.042642
vt 0.395427 0.042642
vt 0.145427 0.707358
vt 0.354573 0.707358
vt 0.354573 0.729573
vt 0.145427 0.729573
vt 0.604573 0.020427
vt 0.604573 0.063068
vt 0.604573 0.187500
vt 0.604573 0.229573
vt 0.145427 0.520427
vt 0.354573 0.520427
vt 0.354573 0.542073
vt 0.145427 0.542073
vt 0.604573 0.770427
vt 0.604573 0.979573
vt 0.645427 0.562500
vt 0.854573 0.562500
vt 0.625000 0.479573
vt 0.604573 0.500000
vt 0.395427 0.500000
vt 0.375000 0.479573
vt 0.604573 0.750000
vt 0.625000 0.770427
vt 0.354573 0.750000
vt 0.354573 0.750000
vt 0.375000 0.729573
vt 0.625000 0.229573
vt 0.604573 0.250000
vt 0.145427 0.500000
vt 0.125000 0.520427
vt 0.125000 0.520427
vt 0.604573 0.000000
vt 0.625000 0.020427
vt 0.125000 0.729573
vt 0.125000 0.729573
vt 0.145427 0.750000
vt 0.395427 0.562500
vt 0.395427 0.562500
vt 0.375000 0.531860
vt 0.125000 0.542073
vt 0.125000 0.542073
vt 0.145427 0.562500
vt 0.395427 0.063068
vt 0.375000 0.042642
vt 0.375000 0.707358
vt 0.375000 0.707358
vt 0.354573 0.686932
vt 0.125000 0.707358
vt 0.354573 0.500000
vt 0.562500 0.000000
vt 0.625000 0.979573
vt 0.625000 0.187500
vt 0.625000 0.270427
vt 0.625000 0.063068
vt 0.645427 0.520427
vt 0.354573 0.562500
vt 0.145427 0.686932
vt 0.395427 0.000000
vt 0.854573 0.520427
vn 1.0000 0.0000 0.0000
vn 0.0000 1.0000 0.0000
vn -1.0000 0.0000 0.0000
vn 0.0000 0.0000 1.0000
vn 0.0000 0.0000 -1.0000
vn 0.0000 -1.0000 0.0000
vn 0.5774 0.5774 -0.5774
vn 0.5774 -0.5774 -0.5774
vn 0.5774 0.5774 0.5774
vn 0.5774 -0.5774 0.5774
vn -0.5774 0.5774 -0.5774
vn -0.5774 -0.5774 -0.5774
vn -0.5774 0.5774 0.5774
vn -0.5774 -0.5774 0.5774
vn 0.5773 -0.5774 0.5774
vn -0.5773 -0.5774 0.5774
vn -0.7071 -0.7071 0.0000
vn 0.0000 -0.7071 -0.7071
vn -0.7071 0.0000 0.7071
vn 0.0000 0.7071 0.7071
vn 0.7071 0.7071 0.0000
vn 0.0000 -0.7071 0.7071
vn -0.7071 0.7071 0.0000
vn 0.0000 0.7071 -0.7071
vn 0.7071 -0.7071 0.0000
vn 0.7071 0.0000 -0.7071
vn 0.7071 0.0000 0.7071
vn -0.7071 0.0000 -0.7071
usemtl Material
s off
f 59/1/1 38/2/1 8/3/1 50/4/1
f 39/5/2 41/6/2 21/7/2 9/8/2
f 55/9/3 52/10/3 18/11/3 30/12/3
f 59/1/1 50/4/1 12/13/1 42/14/1
f 49/15/4 46/16/4 24/17/4 10/18/4
f 51/19/5 48/20/5 4/21/5 16/22/5
f 32/23/4 28/24/4 53/25/4 56/26/4
f 34/27/1 38/2/1 59/1/1 54/28/1
f 44/29/5 36/30/5 57/31/5 60/32/5
f 47/33/1 3/34/1 34/27/1 54/28/1
f 47/33/1 54/28/1 27/35/1 5/36/1
f 51/19/5 15/37/5 1/38/5 48/20/5
f 57/31/6 56/26/6 53/25/6 60/32/6
f 22/39/3 45/40/3 58/41/3 35/42/3
f 37/43/6 43/44/6 11/45/6 23/46/6
f 45/40/3 19/47/3 40/48/3 58/41/3
f 55/9/3 25/49/3 13/50/3 52/10/3
f 17/51/6 6/52/6 29/53/6 31/54/6
f 49/15/4 7/55/4 20/56/4 46/16/4
f 41/6/2 39/5/2 33/57/2 26/58/2
f 40/48/3 25/49/3 55/9/3 58/41/3
f 1/38/7 2/59/7 3/60/7
f 4/21/8 5/61/8 6/62/8
f 7/55/9 8/63/9 9/64/9
f 10/65/10 11/66/10 12/67/10
f 13/50/11 14/68/11 15/69/11
f 16/70/12 17/71/12 18/72/12
f 19/47/13 20/73/13 21/74/13
f 22/75/14 23/76/14 24/77/14
f 27/78/15 28/79/15 29/80/15
f 30/81/16 31/82/16 32/83/16
f 35/42/12 36/84/12 37/85/12
f 42/86/8 43/87/8 44/88/8
f 37/43/17 23/46/17 22/75/17 35/89/17
f 6/52/18 17/51/18 16/70/18 4/90/18
f 46/91/19 20/73/19 19/47/19 45/40/19
f 9/64/20 21/92/20 20/56/20 7/55/20
f 39/5/21 9/8/21 8/3/21 38/2/21
f 23/46/22 11/45/22 10/65/22 24/77/22
f 26/93/23 14/68/23 13/50/23 25/49/23
f 14/94/24 2/59/24 1/38/24 15/37/24
f 29/53/25 6/52/25 5/36/25 27/35/25
f 41/95/23 26/93/23 25/49/23 40/48/23
f 17/51/17 31/54/17 30/81/17 18/72/17
f 2/96/21 33/57/21 34/27/21 3/34/21
f 28/97/22 32/83/22 31/54/22 29/53/22
f 33/57/21 39/5/21 38/2/21 34/27/21
f 21/74/23 41/95/23 40/48/23 19/47/23
f 11/45/25 43/44/25 42/14/25 12/13/25
f 43/44/18 37/43/18 36/98/18 44/88/18
f 24/99/19 46/91/19 45/40/19 22/39/19
f 3/34/26 47/33/26 48/20/26 1/38/26
f 7/55/27 49/15/27 50/4/27 8/3/27
f 15/37/28 51/19/28 52/10/28 13/50/28
f 58/41/17 55/9/17 56/26/17 57/31/17
f 54/28/25 59/1/25 60/32/25 53/25/25
f 47/33/26 5/36/26 4/21/26 48/20/26
f 49/15/27 10/18/27 12/13/27 50/4/27
f 51/19/28 16/22/28 18/11/28 52/10/28
f 53/25/27 28/24/27 27/35/27 54/28/27
f 55/9/19 30/12/19 32/23/19 56/26/19
f 57/31/28 36/30/28 35/42/28 58/41/28
f 59/1/26 42/14/26 44/29/26 60/32/26
f 2/96/2 14/100/2 26/58/2 33/57/2
