# Blender 4.2.0
# www.blender.org
mtllib ThunderMesh.mtl.mtl
o Bolt
v 1.449699 0.000000 -1.449700
v -1.449700 0.000000 -1.449699
v 1.449700 0.000000 1.449699
v -1.449699 0.000000 1.449700
v 1.179457 13.215301 -0.981354
v -0.663988 13.215301 0.333862
v 0.778381 -0.011773 -0.177602
v -0.354493 -0.003255 -0.191881
v 0.679952 0.450600 -0.218338
v 0.556788 0.973274 -0.275732
v 0.413171 1.590667 -0.346439
v 0.485391 2.337306 -0.420960
v 1.013917 3.213372 -0.426746
v 1.646530 4.142202 -0.328460
v 1.797837 5.032060 -0.218605
v 1.284340 5.849387 -0.166020
v 0.614733 6.695931 -0.113700
v 0.302317 7.532251 -0.113273
v 0.584529 8.244557 -0.214312
v 1.323899 8.837584 -0.566595
v 1.775208 9.442379 -0.925189
v 1.839421 10.155003 -1.181779
v 1.654619 11.068563 -1.288068
v 1.377012 12.127844 -1.195095
v -0.743622 12.135375 -0.022507
v -0.790290 11.086466 -0.362797
v -0.505525 10.168464 -0.567361
v -0.406572 9.448746 -0.547527
v -0.795149 8.840458 -0.350976
v -1.502330 8.247511 -0.145516
v -1.978717 7.527164 -0.151732
v -2.067520 6.668936 -0.226132
v -1.714540 5.779579 -0.316558
v -1.344403 4.951550 -0.488301
v -1.120686 4.145783 -0.614013
v -1.221419 3.261578 -0.629981
v -1.254026 2.372105 -0.513086
v -1.005099 1.621734 -0.398528
v -0.722944 0.994804 -0.311826
v -0.502673 0.464887 -0.242291
v 0.000000 -0.075938 1.000000
v 0.000001 1.297107 2.975497
v -0.195090 -0.075938 0.980785
v -0.580490 1.297107 2.918324
v -0.382683 -0.075938 0.923880
v -1.138672 1.297107 2.749001
v -0.555570 -0.075938 0.831470
v -1.653097 1.297107 2.474035
v -0.707107 -0.075938 0.707107
v -2.103993 1.297107 2.103995
v -0.831469 -0.075938 0.555571
v -2.474034 1.297107 1.653098
v -0.923879 -0.075938 0.382684
v -2.749000 1.297107 1.138674
v -0.980785 -0.075938 0.195091
v -2.918323 1.297107 0.580492
v -1.000000 -0.075938 0.000000
v -2.975497 1.297107 0.000001
v -0.980785 -0.075938 -0.195090
v -2.918324 1.297107 -0.580490
v -0.923880 -0.075938 -0.382683
v -2.749001 1.297107 -1.138672
v -0.831470 -0.075938 -0.555570
v -2.474035 1.297107 -1.653097
v -0.707107 -0.075938 -0.707107
v -2.103995 1.297107 -2.103993
v -0.555571 -0.075938 -0.831469
v -1.653098 1.297107 -2.474034
v -0.382684 -0.075938 -0.923879
v -1.138674 1.297107 -2.749000
v -0.195091 -0.075938 -0.980785
v -0.580492 1.297107 -2.918323
v -0.000000 -0.075938 -1.000000
v -0.000001 1.297107 -2.975497
v 0.195090 -0.075938 -0.980785
v 0.580490 1.297107 -2.918324
v 0.382683 -0.075938 -0.923880
v 1.138672 1.297107 -2.749001
v 0.555570 -0.075938 -0.831470
v 1.653097 1.297107 -2.474035
v 0.707107 -0.075938 -0.707107
v 2.103993 1.297107 -2.103995
v 0.831469 -0.075938 -0.555571
v 2.474034 1.297107 -1.653098
v 0.923879 -0.075938 -0.382684
v 2.749000 1.297107 -1.138674
v 0.980785 -0.075938 -0.195091
v 2.918323 1.297107 -0.580492
v 1.000000 -0.075938 -0.000000
v 2.975497 1.297107 -0.000001
v 0.980785 -0.075938 0.195090
v 2.918324 1.297107 0.580490
v 0.923880 -0.075938 0.382683
v 2.749001 1.297107 1.138672
v 0.831470 -0.075938 0.555570
v 2.474035 1.297107 1.653097
v 0.707107 -0.075938 0.707107
v 2.103995 1.297107 2.103993
v 0.555571 -0.075938 0.831469
v 1.653098 1.297107 2.474034
v 0.382684 -0.075938 0.923879
v 1.138674 1.297107 2.749000
v 0.195091 -0.075938 0.980785
v 0.580492 1.297107 2.918323
vn -0.0000 1.0000 -0.0000
vn 0.5216 -0.1904 0.8317
vn -0.0155 0.0934 0.9955
vn -0.0185 0.1015 0.9947
vn -0.0258 0.1136 0.9932
vn -0.0362 0.1176 0.9924
vn -0.0597 0.1037 0.9928
vn -0.0892 0.0146 0.9959
vn -0.0933 -0.0991 0.9907
vn -0.0789 -0.1527 0.9851
vn -0.0574 -0.1496 0.9871
vn -0.0392 -0.0866 0.9955
vn -0.0115 0.0075 0.9999
vn 0.0452 0.2643 0.9634
vn 0.1134 0.3430 0.9325
vn 0.1830 0.2425 0.9527
vn 0.2596 0.1094 0.9595
vn 0.3537 -0.0446 0.9343
vn 0.4593 -0.1613 0.8735
vn 0.4719 -0.1672 0.8656
vn 0.3694 -0.0692 0.9267
vn 0.2664 0.0977 0.9589
vn 0.1660 0.2733 0.9475
vn 0.0826 0.3538 0.9317
vn 0.0212 0.1381 0.9902
vn -0.0164 -0.0072 0.9998
vn -0.0365 -0.0752 0.9965
vn -0.0515 -0.1309 0.9901
vn -0.0745 -0.1570 0.9848
vn -0.0942 -0.0845 0.9920
vn -0.0844 0.0362 0.9958
vn -0.0591 0.1044 0.9928
vn -0.0381 0.1184 0.9922
vn -0.0274 0.1142 0.9931
vn -0.0198 0.1051 0.9943
vn -0.0000 0.8211 -0.5707
vn 0.1113 0.8211 -0.5598
vn 0.2184 0.8211 -0.5273
vn 0.3171 0.8211 -0.4745
vn 0.4036 0.8211 -0.4036
vn 0.4745 0.8211 -0.3171
vn 0.5273 0.8211 -0.2184
vn 0.5598 0.8211 -0.1113
vn 0.5707 0.8211 -0.0000
vn 0.5598 0.8211 0.1113
vn 0.5273 0.8211 0.2184
vn 0.4745 0.8211 0.3171
vn 0.4036 0.8211 0.4036
vn 0.3171 0.8211 0.4745
vn 0.2184 0.8211 0.5273
vn 0.1113 0.8211 0.5598
vn -0.0000 0.8211 0.5707
vn -0.1113 0.8211 0.5598
vn -0.2184 0.8211 0.5273
vn -0.3171 0.8211 0.4745
vn -0.4036 0.8211 0.4036
vn -0.4745 0.8211 0.3171
vn -0.5273 0.8211 0.2184
vn -0.5598 0.8211 0.1113
vn -0.5707 0.8211 -0.0000
vn -0.5598 0.8211 -0.1113
vn -0.5273 0.8211 -0.2184
vn -0.4745 0.8211 -0.3171
vn -0.4036 0.8211 -0.4036
vn -0.3171 0.8211 -0.4745
vn -0.2184 0.8211 -0.5273
vn -0.1113 0.8211 -0.5598
vt 0.000000 0.000000
vt 1.000000 0.000000
vt 1.000000 1.000000
vt 0.000000 1.000000
vt 1.000000 0.058824
vt 0.000000 0.058824
vt 0.000000 0.941177
vt 1.000000 0.941176
vt 0.000000 0.882353
vt 1.000000 0.882353
vt 0.000000 0.823529
vt 1.000000 0.823529
vt 0.000000 0.764706
vt 1.000000 0.764706
vt 0.000000 0.705882
vt 1.000000 0.705882
vt 0.000000 0.647059
vt 1.000000 0.647059
vt 0.000000 0.588235
vt 1.000000 0.588235
vt 0.000000 0.529412
vt 1.000000 0.529412
vt 0.000000 0.470588
vt 1.000000 0.470588
vt 0.000000 0.411765
vt 1.000000 0.411765
vt 0.000000 0.352941
vt 1.000000 0.352941
vt 0.000000 0.294118
vt 1.000000 0.294118
vt 0.000000 0.235294
vt 1.000000 0.235294
vt 0.000000 0.176471
vt 1.000000 0.176471
vt 0.000000 0.117647
vt 1.000000 0.117647
vt 0.968750 0.000000
vt 0.968750 1.000000
vt 0.937500 0.000000
vt 0.937500 1.000000
vt 0.906250 0.000000
vt 0.906250 1.000000
vt 0.875000 0.000000
vt 0.875000 1.000000
vt 0.843750 0.000000
vt 0.843750 1.000000
vt 0.812500 0.000000
vt 0.812500 1.000000
vt 0.781250 0.000000
vt 0.781250 1.000000
vt 0.750000 0.000000
vt 0.750000 1.000000
vt 0.718750 0.000000
vt 0.718750 1.000000
vt 0.687500 0.000000
vt 0.687500 1.000000
vt 0.656250 0.000000
vt 0.656250 1.000000
vt 0.625000 0.000000
vt 0.625000 1.000000
vt 0.593750 0.000000
vt 0.593750 1.000000
vt 0.562500 0.000000
vt 0.562500 1.000000
vt 0.531250 0.000000
vt 0.531250 1.000000
vt 0.500000 0.000000
vt 0.500000 1.000000
vt 0.468750 0.000000
vt 0.468750 1.000000
vt 0.437500 0.000000
vt 0.437500 1.000000
vt 0.406250 0.000000
vt 0.406250 1.000000
vt 0.375000 0.000000
vt 0.375000 1.000000
vt 0.343750 0.000000
vt 0.343750 1.000000
vt 0.312500 0.000000
vt 0.312500 1.000000
vt 0.281250 0.000000
vt 0.281250 1.000000
vt 0.250000 0.000000
vt 0.250000 1.000000
vt 0.218750 0.000000
vt 0.218750 1.000000
vt 0.187500 0.000000
vt 0.187500 1.000000
vt 0.156250 0.000000
vt 0.156250 1.000000
vt 0.125000 0.000000
vt 0.125000 1.000000
vt 0.093750 0.000000
vt 0.093750 1.000000
vt 0.062500 0.000000
vt 0.062500 1.000000
vt 0.031250 0.000000
vt 0.031250 1.000000
s 1
usemtl Material.003
f 1/1/1 2/2/1 4/3/1 3/4/1
usemtl Material.001
f 9/5/4 40/6/35 8/1/3 7/2/3
f 5/3/2 6/4/2 25/7/20 24/8/19
f 24/8/19 25/7/20 26/9/21 23/10/18
f 23/10/18 26/9/21 27/11/22 22/12/17
f 22/12/17 27/11/22 28/13/23 21/14/16
f 21/14/16 28/13/23 29/15/24 20/16/15
f 20/16/15 29/15/24 30/17/25 19/18/14
f 19/18/14 30/17/25 31/19/26 18/20/13
f 18/20/13 31/19/26 32/21/27 17/22/12
f 17/22/12 32/21/27 33/23/28 16/24/11
f 16/24/11 33/23/28 34/25/29 15/26/10
f 15/26/10 34/25/29 35/27/30 14/28/9
f 14/28/9 35/27/30 36/29/31 13/30/8
f 13/30/8 36/29/31 37/31/32 12/32/7
f 12/32/7 37/31/32 38/33/33 11/34/6
f 11/34/6 38/33/33 39/35/34 10/36/5
f 10/36/5 39/35/34 40/6/35 9/5/4
usemtl Material.002
f 41/2/36 43/37/37 44/38/37 42/3/36
f 43/37/37 45/39/38 46/40/38 44/38/37
f 45/39/38 47/41/39 48/42/39 46/40/38
f 47/41/39 49/43/40 50/44/40 48/42/39
f 49/43/40 51/45/41 52/46/41 50/44/40
f 51/45/41 53/47/42 54/48/42 52/46/41
f 53/47/42 55/49/43 56/50/43 54/48/42
f 55/49/43 57/51/44 58/52/44 56/50/43
f 57/51/44 59/53/45 60/54/45 58/52/44
f 59/53/45 61/55/46 62/56/46 60/54/45
f 61/55/46 63/57/47 64/58/47 62/56/46
f 63/57/47 65/59/48 66/60/48 64/58/47
f 65/59/48 67/61/49 68/62/49 66/60/48
f 67/61/49 69/63/50 70/64/50 68/62/49
f 69/63/50 71/65/51 72/66/51 70/64/50
f 71/65/51 73/67/52 74/68/52 72/66/51
f 73/67/52 75/69/53 76/70/53 74/68/52
f 75/69/53 77/71/54 78/72/54 76/70/53
f 77/71/54 79/73/55 80/74/55 78/72/54
f 79/73/55 81/75/56 82/76/56 80/74/55
f 81/75/56 83/77/57 84/78/57 82/76/56
f 83/77/57 85/79/58 86/80/58 84/78/57
f 85/79/58 87/81/59 88/82/59 86/80/58
f 87/81/59 89/83/60 90/84/60 88/82/59
f 89/83/60 91/85/61 92/86/61 90/84/60
f 91/85/61 93/87/62 94/88/62 92/86/61
f 93/87/62 95/89/63 96/90/63 94/88/62
f 95/89/63 97/91/64 98/92/64 96/90/63
f 97/91/64 99/93/65 100/94/65 98/92/64
f 99/93/65 101/95/66 102/96/66 100/94/65
f 101/95/66 103/97/67 104/98/67 102/96/66
f 103/97/67 41/1/36 42/4/36 104/98/67
