# Blender v3.0.0 OBJ File: 'walkway1.blend'
# www.blender.org
mtllib walkway1.mtl
o Cube
v 1.000000 0.100000 -1.000000
v 1.000000 -0.100000 -1.000000
v 1.000000 0.100000 1.000000
v -0.998931 0.765647 0.717065
v -0.998931 0.765647 -0.882935
v 1.000000 -0.100000 1.000000
v -1.000000 0.100000 -1.000000
v 0.998931 0.765647 -0.882935
v 0.998931 0.765647 0.717065
v -1.000000 -0.100000 -1.000000
v -1.000000 0.100000 1.000000
v -0.998931 0.717065 -0.834353
v -0.998931 0.717065 0.765647
v -1.000000 -0.100000 1.000000
v 0.998931 0.717065 -0.834353
v 0.998931 0.717065 0.765647
v -0.998931 0.717065 0.834353
v -0.998931 0.717065 -0.765647
v 0.998931 0.717065 -0.765647
v 0.998931 0.717065 0.834353
v -0.998931 0.765647 -0.717065
v -0.998931 0.765647 0.882935
v 0.998931 0.765647 0.882935
v 0.998931 0.765647 -0.717065
v -0.998931 0.834353 -0.717065
v -0.998931 0.834353 0.882935
v 0.998931 0.834353 -0.717065
v 0.998931 0.834353 0.882935
v -0.834353 0.765647 -0.882935
v -0.834353 0.765647 0.717065
v -0.998931 0.882935 -0.765647
v -0.998931 0.882935 0.834353
v 0.998931 0.882935 -0.765647
v 0.998931 0.882935 0.834353
v -0.998931 0.882935 0.765647
v -0.998931 0.882935 -0.834353
v 0.998931 0.882935 0.765647
v 0.998931 0.882935 -0.834353
v -0.998931 0.834353 0.717065
v -0.998931 0.834353 -0.882935
v 0.765647 0.765647 0.717065
v 0.765647 0.765647 -0.882935
v 0.998931 0.834353 0.717065
v 0.998931 0.834353 -0.882935
v 0.882935 0.717065 -0.765647
v 0.882935 0.717065 0.834353
v 0.882935 0.717065 -0.834353
v 0.882935 0.717065 0.765647
v 0.834353 0.765647 -0.717065
v 0.834353 0.765647 0.882935
v 0.717065 0.717065 0.834353
v 0.717065 0.717065 -0.765647
v 0.765647 0.765647 -0.717065
v 0.765647 0.765647 0.882935
v 0.717065 0.717065 -0.834353
v 0.717065 0.717065 0.765647
v 0.834353 0.765647 0.717065
v 0.834353 0.765647 -0.882935
v -0.717065 0.717065 -0.834353
v -0.717065 0.717065 0.765647
v -0.882935 0.717065 0.765647
v -0.882935 0.717065 -0.834353
v -0.882935 0.717065 0.834353
v -0.882935 0.717065 -0.765647
v -0.717065 0.717065 0.834353
v -0.717065 0.717065 -0.765647
v -0.765647 0.765647 0.882935
v -0.765647 0.765647 -0.717065
v -0.834353 0.765647 0.882935
v -0.834353 0.765647 -0.717065
v -0.765647 0.765647 -0.882935
v -0.765647 0.765647 0.717065
v -0.765647 0.100000 -0.882935
v -0.834353 0.100000 -0.882935
v -0.882935 0.100000 0.834353
v -0.882935 0.100000 0.765647
v -0.882935 0.100000 -0.765647
v -0.882935 0.100000 -0.834353
v -0.834353 0.100000 -0.882935
v -0.834353 0.100000 0.717065
v -0.834353 0.100000 0.717065
v -0.834353 0.100000 -0.717065
v -0.765647 0.100000 0.717065
v -0.765647 0.100000 -0.717065
v -0.717065 0.100000 -0.765647
v -0.717065 0.100000 -0.834353
v 0.882935 0.100000 0.834353
v 0.717065 0.100000 -0.765647
v 0.717065 0.100000 -0.834353
v 0.834353 0.100000 -0.882935
v 0.882935 0.100000 -0.834353
v 0.765647 0.100000 -0.882935
v 0.882935 0.100000 0.765647
v 0.834353 0.100000 0.882935
v -0.717065 0.100000 0.834353
v -0.717065 0.100000 0.765647
v -0.834353 0.100000 0.882935
v -0.765647 0.100000 0.882935
v 0.717065 0.100000 0.834353
v 0.717065 0.100000 0.765647
v 0.765647 0.100000 0.882935
v 0.834353 0.100000 0.717065
v 0.834353 0.100000 -0.717065
v 0.882935 0.100000 -0.765647
v 0.765647 0.100000 0.717065
v 0.765647 0.100000 -0.717065
vt 0.854294 0.514633
vt 0.854294 0.514633
vt 0.845706 0.514633
vt 0.839633 0.520706
vt 0.839633 0.529294
vt 0.845706 0.535367
vt 0.854294 0.535367
vt 0.854294 0.714633
vt 0.845706 0.714633
vt 0.839633 0.720706
vt 0.839633 0.729294
vt 0.845706 0.735367
vt 0.854294 0.735367
vt 0.857331 0.732330
vt 0.875000 0.750000
vt 0.625000 0.750000
vt 0.640315 0.729976
vt 0.645706 0.735367
vt 0.654294 0.735367
vt 0.660367 0.729294
vt 0.660367 0.720706
vt 0.654294 0.714633
vt 0.654294 0.535367
vt 0.660367 0.529294
vt 0.660367 0.520706
vt 0.654294 0.514633
vt 0.645706 0.514633
vt 0.642670 0.517669
vt 0.625000 0.500000
vt 0.875000 0.500000
vt 0.855023 0.515362
vt 0.860367 0.729294
vt 0.860367 0.720706
vt 0.854294 0.714633
vt 0.860367 0.529294
vt 0.639633 0.520706
vt 0.639633 0.529294
vt 0.645706 0.535367
vt 0.645706 0.714633
vt 0.639633 0.720706
vt 0.375000 0.750000
vt 0.625000 1.000000
vt 0.375000 1.000000
vt 0.375000 0.000000
vt 0.625000 0.000000
vt 0.625000 0.250000
vt 0.375000 0.250000
vt 0.125000 0.500000
vt 0.375000 0.500000
vt 0.125000 0.750000
vt 0.812500 0.554791
vt 0.812500 0.956313
vt 0.687500 0.956313
vt 0.687500 0.554791
vt 0.562500 0.987925
vt 0.562500 0.554791
vt 0.437500 0.987925
vt 0.437500 0.554791
vt 0.562500 0.958812
vt 0.562500 1.000000
vt 0.437500 1.000000
vt 0.437500 0.500000
vt 0.562500 0.500000
vt 0.562500 0.541189
vt 0.562500 0.558383
vt 0.312500 0.956313
vt 0.312500 0.554791
vt 0.187500 0.956313
vt 0.187500 0.554791
vt 0.062500 1.000000
vt 0.062500 0.554791
vt 0.937500 0.987925
vt 0.875000 0.554791
vt 0.937500 0.554791
vt 0.812500 0.500000
vt 0.812500 0.500000
vt 0.687500 1.000000
vt 0.687500 1.000000
vt 0.687500 1.000000
vt 0.812500 0.500000
vt 0.812500 0.500000
vt 0.687500 1.000000
vt 0.812500 0.500000
vt 0.687500 1.000000
vt 0.687500 1.000000
vt 0.812500 0.500000
vt 0.687500 0.500000
vt 0.687500 0.529030
vt 0.687500 0.570542
vt 0.687500 0.929458
vt 0.562500 0.941617
vt 0.687500 0.970970
vt 0.312500 1.000000
vt 0.312500 0.500000
vt 0.187500 1.000000
vt 0.187500 1.000000
vt 0.062500 1.000000
vt 0.062500 0.500000
vt 0.187500 0.500000
vt 0.937500 0.558383
vt 0.937500 0.941617
vt 0.812500 0.929458
vt 0.812500 0.570542
vt 0.937500 0.500000
vt 0.937500 0.541189
vt 0.812500 0.529030
vt 0.937500 0.958812
vt 0.937500 1.000000
vt 0.812500 1.000000
vt 0.812500 0.970970
vt 0.158156 0.028269
vt 0.028269 0.158156
vt 0.471731 0.341844
vt 0.341844 0.471731
vt 0.341844 0.471731
vt 0.471731 0.341844
vt 0.028269 0.158156
vt 0.158156 0.028269
vt 0.971731 0.341844
vt 0.971731 0.158156
vt 0.841844 0.028269
vt 0.841844 0.028269
vt 0.971731 0.158156
vt 0.971731 0.341844
vt 0.658156 0.471731
vt 0.658156 0.471731
vt 0.812500 0.554791
vt 0.812500 0.956313
vt 0.687500 0.956313
vt 0.687500 0.554791
vt 0.562500 0.987925
vt 0.562500 0.554791
vt 0.437500 0.987925
vt 0.437500 0.554791
vt 0.312500 0.956313
vt 0.312500 0.554791
vt 0.187500 0.956313
vt 0.187500 0.554791
vt 0.937500 0.554791
vt 0.937500 0.987925
vt 0.062500 0.554791
vt 0.062500 1.000000
vt 0.812500 0.554791
vt 0.812500 0.956313
vt 0.687500 0.956313
vt 0.687500 0.554791
vt 0.562500 0.987925
vt 0.562500 0.554791
vt 0.437500 0.987925
vt 0.437500 0.554791
vt 0.312500 0.956313
vt 0.312500 0.554791
vt 0.187500 0.956313
vt 0.187500 0.554791
vt 0.062500 1.000000
vt 0.062500 0.554791
vt 0.937500 0.554791
vt 0.937500 0.987925
vt 0.812500 0.500000
vt 0.812500 0.500000
vt 0.687500 1.000000
vt 0.687500 1.000000
vt 0.687500 1.000000
vt 0.812500 0.500000
vt 0.812500 0.500000
vt 0.687500 1.000000
vt 0.812500 0.500000
vt 0.687500 1.000000
vt 0.687500 1.000000
vt 0.812500 0.500000
vt 0.562500 0.541189
vt 0.562500 0.500000
vt 0.687500 0.500000
vt 0.687500 0.529030
vt 0.687500 0.570542
vt 0.687500 0.929458
vt 0.562500 0.941617
vt 0.562500 0.558383
vt 0.562500 1.000000
vt 0.562500 0.958812
vt 0.687500 0.970970
vt 0.437500 1.000000
vt 0.437500 0.500000
vt 0.312500 1.000000
vt 0.312500 0.500000
vt 0.187500 1.000000
vt 0.187500 1.000000
vt 0.062500 1.000000
vt 0.062500 0.500000
vt 0.187500 0.500000
vt 0.937500 0.558383
vt 0.937500 0.941617
vt 0.812500 0.929458
vt 0.812500 0.570542
vt 0.937500 0.500000
vt 0.937500 0.541189
vt 0.812500 0.529030
vt 0.937500 0.958812
vt 0.937500 1.000000
vt 0.812500 1.000000
vt 0.812500 0.970970
vt 0.158156 0.028269
vt 0.028269 0.158156
vt 0.471731 0.341844
vt 0.341844 0.471731
vt 0.341844 0.471731
vt 0.471731 0.341844
vt 0.028269 0.158156
vt 0.158156 0.028269
vt 0.971731 0.341844
vt 0.971731 0.158156
vt 0.841844 0.028269
vt 0.841844 0.028269
vt 0.971731 0.158156
vt 0.971731 0.341844
vt 0.658156 0.471731
vt 0.658156 0.471731
vt 0.812500 0.554791
vt 0.812500 0.956313
vt 0.687500 0.956313
vt 0.687500 0.554791
vt 0.562500 0.987925
vt 0.562500 0.554791
vt 0.437500 0.987925
vt 0.437500 0.554791
vt 0.312500 0.956313
vt 0.375000 0.554791
vt 0.312500 0.554791
vt 0.187500 0.956313
vt 0.187500 0.554791
vt 0.937500 0.987925
vt 0.937500 0.554791
vt 0.062500 0.554791
vt 0.062500 1.000000
vt 0.062500 0.554791
vt 0.062500 0.554791
vn 0.0000 1.0000 -0.0000
vn 0.0000 0.0000 1.0000
vn -1.0000 0.0000 0.0000
vn 0.0000 -1.0000 0.0000
vn 1.0000 0.0000 0.0000
vn 0.0000 0.0000 -1.0000
vn 0.7071 0.0000 0.7071
vn -0.7071 0.0000 0.7071
vn -0.7071 0.0000 -0.7071
vn 0.7071 0.0000 -0.7071
vn 0.0000 -0.7071 0.7071
vn 0.0000 0.7071 0.7071
vn 0.0000 0.7071 -0.7071
vn 0.0000 -0.7071 -0.7071
usemtl Material
s off
f 79/1/1 74/2/1 73/3/1 86/4/1 85/5/1 84/6/1 82/7/1 80/8/1 83/9/1 96/10/1 95/11/1 98/12/1 97/13/1 75/14/1 11/15/1 3/16/1 87/17/1 94/18/1 101/19/1 99/20/1 100/21/1 105/22/1 106/23/1 88/24/1 89/25/1 92/26/1 90/27/1 91/28/1 1/29/1 7/30/1 78/31/1
f 7/30/1 11/15/1 75/32/1 76/33/1 81/34/1 80/8/1 82/7/1 77/35/1 78/31/1
f 87/17/1 3/16/1 1/29/1 91/36/1 104/37/1 103/38/1 106/23/1 105/22/1 102/39/1 93/40/1
f 6/41/2 3/16/2 11/42/2 14/43/2
f 14/44/3 11/45/3 7/46/3 10/47/3
f 10/48/4 2/49/4 6/41/4 14/50/4
f 2/49/5 1/29/5 3/16/5 6/41/5
f 10/47/6 7/46/6 1/29/6 2/49/6
f 91/51/5 47/52/5 45/53/5 104/54/5
f 104/54/7 45/53/7 49/55/7 103/56/7
f 103/56/2 49/55/2 53/57/2 106/58/2
f 53/57/2 49/59/2 24/60/2 27/61/2 25/62/2 21/63/2 70/64/2 68/65/2
f 106/58/8 53/57/8 52/66/8 88/67/8
f 88/67/3 52/66/3 55/68/3 89/69/3
f 42/70/9 92/71/9 89/69/9 55/68/9
f 58/72/10 47/52/10 91/73/10 90/74/10
f 92/71/6 42/70/6 58/72/6 90/74/6
f 59/75/4 55/76/4 52/77/4 66/78/4
f 18/79/4 12/80/4 62/81/4 64/82/4
f 15/83/4 19/84/4 45/85/4 47/86/4
f 70/64/11 21/63/11 18/87/11 64/88/11
f 66/89/11 52/90/11 53/91/11 68/65/11
f 19/84/11 24/60/11 49/59/11 45/92/11
f 27/61/12 33/93/12 31/94/12 25/62/12
f 33/93/1 38/95/1 36/96/1 31/94/1
f 38/95/13 44/97/13 40/98/13 36/99/13
f 71/100/14 42/101/14 55/102/14 59/103/14
f 12/80/14 5/104/14 29/105/14 62/106/14
f 58/107/14 8/108/14 15/109/14 47/110/14
f 24/111/5 19/112/5 15/113/5 8/114/5 44/115/5 38/116/5 33/117/5 27/118/5
f 12/119/3 18/120/3 21/121/3 25/122/3 31/123/3 36/124/3 40/125/3 5/126/3
f 40/98/6 44/97/6 8/108/6 58/107/6 42/101/6 71/100/6 29/105/6 5/104/6
f 86/127/5 59/128/5 66/129/5 85/130/5
f 85/130/7 66/129/7 68/131/7 84/132/7
f 84/132/2 68/131/2 70/133/2 82/134/2
f 82/134/8 70/133/8 64/135/8 77/136/8
f 77/136/3 64/135/3 62/137/3 78/138/3
f 73/139/10 71/140/10 59/128/10 86/127/10
f 71/140/6 73/139/6 74/141/6 29/142/6
f 93/143/5 48/144/5 46/145/5 87/146/5
f 87/146/7 46/145/7 50/147/7 94/148/7
f 94/148/2 50/147/2 54/149/2 101/150/2
f 101/150/8 54/149/8 51/151/8 99/152/8
f 99/152/3 51/151/3 56/153/3 100/154/3
f 41/155/9 105/156/9 100/154/9 56/153/9
f 102/157/10 57/158/10 48/144/10 93/143/10
f 105/156/6 41/155/6 57/158/6 102/157/6
f 60/159/4 56/160/4 51/161/4 65/162/4
f 17/163/4 13/164/4 61/165/4 63/166/4
f 16/167/4 20/168/4 46/169/4 48/170/4
f 69/171/11 22/172/11 17/173/11 63/174/11
f 65/175/11 51/176/11 54/177/11 67/178/11
f 20/168/11 23/179/11 50/180/11 46/181/11
f 23/179/2 28/182/2 26/183/2 22/172/2 69/171/2 67/178/2 54/149/2 50/180/2
f 28/182/12 34/184/12 32/185/12 26/183/12
f 34/184/1 37/186/1 35/187/1 32/185/1
f 37/186/13 43/188/13 39/189/13 35/190/13
f 72/191/14 41/192/14 56/193/14 60/194/14
f 13/164/14 4/195/14 30/196/14 61/197/14
f 57/198/14 9/199/14 16/200/14 48/201/14
f 23/202/5 20/203/5 16/204/5 9/205/5 43/206/5 37/207/5 34/208/5 28/209/5
f 13/210/3 17/211/3 22/212/3 26/213/3 32/214/3 35/215/3 39/216/3 4/217/3
f 39/189/6 43/188/6 9/199/6 57/198/6 41/192/6 72/191/6 30/196/6 4/195/6
f 96/218/5 60/219/5 65/220/5 95/221/5
f 95/221/7 65/220/7 67/222/7 98/223/7
f 98/223/2 67/222/2 69/224/2 97/225/2
f 97/225/8 69/224/8 63/226/8 75/227/8
f 75/228/3 63/226/3 61/229/3 76/230/3
f 72/231/10 60/219/10 96/218/10 83/232/10
f 72/231/6 83/232/6 80/233/6 30/234/6
f 30/234/9 80/233/9 81/235/9 76/230/9 61/229/9
f 29/142/9 74/141/9 79/236/9 78/138/9 62/137/9
