# Blender 4.2.0
# www.blender.org
mtllib rship3.mtl
o Ship
v 1.366292 0.365246 0.682279
v -1.392019 -1.326305 0.000064
v 1.366292 0.365246 -0.682150
v -4.104827 -2.202777 0.000064
v -3.175310 -0.888844 0.000064
v 4.104827 -2.202777 0.000064
v 3.175310 -0.888844 0.000064
v 0.337424 3.130169 0.256108
v 0.682329 0.365246 1.366242
v 1.000171 -0.500000 0.499457
v 0.499499 -0.500000 1.000129
v 0.000000 0.365246 -1.366113
v 0.000000 -0.500000 -1.000000
v 0.466982 -2.444364 0.000064
v 0.466982 -2.168137 0.000064
v 0.750439 -1.944526 0.000064
v 0.000000 3.130169 -0.337245
v 0.000000 -1.326305 -1.391840
v 0.000000 -1.944526 -0.750260
v 0.000000 -2.168137 -0.466803
v 0.000000 -2.444364 -0.466803
v 1.392019 -1.326305 0.000064
v 0.337424 3.130169 0.000064
v 0.896203 -2.440443 -1.190813
v 1.190993 -2.440443 -0.896023
v 0.695176 -1.326305 -1.391840
v -0.499499 -0.500000 -1.000000
v -1.000171 -0.500000 -0.499328
v -1.366292 0.365246 -0.682150
v -0.682329 0.365246 -1.366113
v -0.337424 3.130169 -0.255979
v -0.256158 3.130169 -0.337245
v 1.392019 -1.326305 -0.694997
v 0.233280 -2.444364 -0.466803
v -0.750439 -1.944526 -0.374638
v -0.374818 -1.944526 -0.750260
v -0.466982 -2.168137 -0.233100
v -0.233280 -2.168137 -0.466803
v -0.466982 -2.444364 -0.233100
v -0.233280 -2.444364 -0.466803
v -1.392019 -1.326305 -0.694997
v -0.695176 -1.326305 -1.391840
v -1.190993 -2.440443 -0.896023
v -0.896203 -2.440443 -1.190813
v 0.466982 -2.444364 -0.233100
v 0.233280 -2.168137 -0.466803
v 0.466982 -2.168137 -0.233100
v 0.374818 -1.944526 -0.750260
v -0.337424 3.130169 0.000064
v -0.750439 -1.944526 0.000064
v -0.466982 -2.168137 0.000064
v -0.466982 -2.444364 0.000064
v 0.750439 -1.944526 -0.374638
v 0.000000 0.365246 1.366242
v 0.000000 -0.500000 1.000129
v 0.256158 3.130169 -0.337245
v 0.337424 3.130169 -0.255979
v 0.682329 0.365246 -1.366113
v 1.000171 -0.500000 -0.499328
v 0.499499 -0.500000 -1.000000
v 0.000000 3.130169 0.337374
v 0.000000 -1.326305 1.391968
v 0.000000 -1.944526 0.750389
v 0.000000 -2.168137 0.466932
v 0.000000 -2.444364 0.466932
v 0.000000 3.657651 0.000064
v 0.000000 -2.444364 0.000064
v -0.499499 -0.500000 1.000129
v -1.000171 -0.500000 0.499457
v -1.366292 0.365246 0.682279
v -0.682329 0.365246 1.366242
v -0.337424 3.130169 0.256108
v -0.256158 3.130169 0.337374
v -0.750439 -1.944526 0.374767
v -0.374818 -1.944526 0.750389
v -0.466982 -2.168137 0.233229
v -0.233280 -2.168137 0.466932
v -0.466982 -2.444364 0.233229
v -0.233280 -2.444364 0.466932
v -1.392019 -1.326305 0.695126
v -0.695176 -1.326305 1.391968
v -1.190993 -2.440443 0.896152
v -0.896203 -2.440443 1.190942
v 0.256158 3.130169 0.337374
v 0.750439 -1.944526 0.374767
v 0.374818 -1.944526 0.750389
v 0.466982 -2.168137 0.233229
v 0.233280 -2.168137 0.466932
v 0.466982 -2.444364 0.233229
v 0.233280 -2.444364 0.466932
v 1.392019 -1.326305 0.695126
v 0.695176 -1.326305 1.391968
v 1.190993 -2.440443 0.896152
v 0.896203 -2.440443 1.190942
vn 0.1845 -0.5710 -0.8000
vn -0.1845 -0.5710 -0.8000
vn 0.2194 -0.0251 0.9753
vn 0.1845 -0.5710 0.8000
vn -0.5479 0.3869 0.7417
vn -0.2194 -0.0251 -0.9753
vn 0.2194 -0.0251 -0.9753
vn 0.5479 0.3869 -0.7417
vn -0.2194 -0.0251 0.9753
vn -0.5479 0.3869 -0.7417
vn 0.5479 0.3869 0.7417
vn -0.1845 -0.5710 0.8000
vn -0.0000 -1.0000 -0.0000
vn 0.9372 0.3488 -0.0000
vn -0.0000 0.3488 -0.9372
vn 0.5534 0.6226 0.5534
vn 0.7071 -0.0000 0.7071
vn 0.6318 0.4492 0.6318
vn -0.0000 -0.0000 1.0000
vn 0.6123 -0.2460 -0.7514
vn -0.0000 -0.7201 0.6939
vn 0.8424 0.5389 -0.0000
vn 0.4221 -0.8023 0.4221
vn -0.0000 -0.7851 0.6194
vn 0.6194 -0.7851 -0.0000
vn 0.7071 -0.0000 -0.7071
vn -0.4166 -0.8080 0.4166
vn -0.0000 0.4285 0.9036
vn -0.0000 -0.3897 -0.9209
vn -0.0000 0.3488 0.9372
vn -0.6452 -0.4093 -0.6452
vn -0.6627 0.3488 0.6627
vn -0.0000 0.4285 -0.9036
vn -0.6318 0.4492 -0.6318
vn -0.0000 -0.7851 -0.6194
vn -0.0000 -0.7201 -0.6939
vn -0.4221 -0.8023 -0.4221
vn -0.0000 -0.0000 -1.0000
vn -0.7071 -0.0000 -0.7071
vn -0.6123 -0.2460 0.7514
vn 0.7514 -0.2460 -0.6123
vn -1.0000 -0.0000 -0.0000
vn -0.6194 -0.7851 -0.0000
vn -0.6939 -0.7201 -0.0000
vn -0.9372 0.3488 -0.0000
vn 0.6939 -0.7201 -0.0000
vn 0.9036 0.4285 -0.0000
vn 0.6123 -0.2460 0.7514
vn -0.6627 0.3488 -0.6627
vn 0.6318 0.4492 -0.6318
vn -0.0000 0.5387 -0.8425
vn 0.6452 -0.4093 0.6452
vn -0.0000 -0.3897 0.9209
vn 0.6627 0.3488 -0.6627
vn -0.6452 -0.4093 0.6452
vn 0.4221 -0.8023 -0.4221
vn -0.6318 0.4492 0.6318
vn -0.4221 -0.8023 0.4221
vn -0.7071 -0.0000 0.7071
vn -0.8424 0.5389 -0.0000
vn -0.6123 -0.2460 -0.7514
vn 0.7514 -0.2460 0.6123
vn 0.6452 -0.4093 -0.6452
vn -0.5534 0.6226 -0.5534
vn -0.5534 0.6226 0.5534
vn -0.0000 0.5387 0.8425
vn -0.7514 -0.2460 0.6123
vn 0.4166 -0.8080 0.4166
vn 0.4166 -0.8080 -0.4166
vn 1.0000 -0.0000 -0.0000
vn 0.5534 0.6226 -0.5534
vn -0.7514 -0.2460 -0.6123
vn -0.9036 0.4285 -0.0000
vn -0.4166 -0.8080 -0.4166
vn 0.6627 0.3488 0.6627
vt 0.803745 0.421152
vt 0.785053 0.530967
vt 0.994351 0.808066
vt 0.805616 0.400170
vt 0.994074 0.012205
vt 0.786316 0.290461
vt 0.994319 0.208252
vt 0.902967 0.460334
vt 0.900760 0.360450
vt 0.991461 0.012734
vt 0.993509 0.612020
vt 0.995595 0.807541
vt 0.089844 0.166243
vt 0.146726 0.109375
vt 0.089844 0.109375
vt 0.118259 0.052507
vt 0.089844 0.052507
vt 0.146726 0.080974
vt 0.595542 0.451802
vt 0.543631 0.115013
vt 0.626730 0.451802
vt 0.826369 0.659700
vt 0.826248 0.996489
vt 0.909361 0.996519
vt 0.857571 0.659711
vt 0.447313 0.918237
vt 0.406476 0.949913
vt 0.437414 0.908338
vt 0.143893 0.260245
vt 0.144089 0.345126
vt 0.008322 0.320952
vt 0.008239 0.285044
vt 0.244794 0.368729
vt 0.244653 0.307743
vt 0.220703 0.119041
vt 0.220703 0.085395
vt 0.249118 0.085395
vt 0.249118 0.119041
vt 0.010008 0.200899
vt 0.743135 0.996459
vt 0.795167 0.659689
vt 0.203125 0.641002
vt 0.203125 0.719151
vt 0.248781 0.719151
vt 0.287803 0.641002
vt 0.506955 0.929219
vt 0.475767 0.993471
vt 0.475767 0.929219
vt 0.231540 0.753679
vt 0.260007 0.782146
vt 0.294534 0.764905
vt 0.277585 0.085395
vt 0.277585 0.119041
vt 0.203125 0.753679
vt 0.543733 0.928976
vt 0.543733 0.993227
vt 0.512545 0.928976
vt 0.260007 0.810547
vt 0.294534 0.810547
vt 0.348197 0.919697
vt 0.294534 0.856189
vt 0.248781 0.901942
vt 0.312290 0.955605
vt 0.244934 0.429572
vt 0.144284 0.429803
vt 0.477452 0.726431
vt 0.477452 0.787274
vt 0.582846 0.809544
vt 0.582846 0.726431
vt 0.260007 0.838948
vt 0.595528 0.451802
vt 0.543617 0.115013
vt 0.626730 0.115013
vt 0.582846 0.892856
vt 0.477452 0.848259
vt 0.585629 0.451802
vt 0.460305 0.115013
vt 0.144479 0.514481
vt 0.245074 0.490414
vt 0.144674 0.599362
vt 0.245215 0.551400
vt 0.203125 0.901942
vt 0.203125 0.867415
vt 0.174710 0.867415
vt 0.157469 0.901942
vt 0.203125 0.980092
vt 0.118447 0.980092
vt 0.146243 0.838948
vt 0.111716 0.856189
vt 0.192288 0.085395
vt 0.192288 0.119041
vt 0.163821 0.085395
vt 0.163821 0.119041
vt 0.118259 0.166243
vt 0.146726 0.137776
vt 0.008908 0.575188
vt 0.009105 0.721720
vt 0.010008 0.200913
vt 0.008239 0.285058
vt 0.143893 0.260259
vt 0.008825 0.539280
vt 0.249104 0.119041
vt 0.249104 0.085395
vt 0.146243 0.810547
vt 0.111716 0.810547
vt 0.033566 0.895211
vt 0.033566 0.810547
vt 0.683764 0.518680
vt 0.600665 0.855469
vt 0.631853 0.855469
vt 0.061429 0.166243
vt 0.032962 0.109375
vt 0.032962 0.137776
vt 0.372684 0.895211
vt 0.372684 0.810547
vt 0.719419 0.518680
vt 0.667508 0.855469
vt 0.636320 0.855469
vt 0.144089 0.345140
vt 0.244794 0.368742
vt 0.287803 0.980092
vt 0.992673 0.996549
vt 0.867470 0.659715
vt 0.574935 0.928976
vt 0.709843 0.115013
vt 0.657932 0.451802
vt 0.793155 0.115013
vt 0.687573 0.009619
vt 0.748559 0.009619
vt 0.626730 0.009619
vt 0.372684 0.725883
vt 0.582846 0.643318
vt 0.477452 0.665588
vt 0.565887 0.009619
vt 0.659823 0.996429
vt 0.785268 0.659685
vt 0.504902 0.009619
vt 0.231540 0.867415
vt 0.157469 0.719151
vt 0.174710 0.753679
vt 0.118447 0.641002
vt 0.111716 0.764905
vt 0.146243 0.782146
vt 0.444579 0.929219
vt 0.009105 0.721706
vt 0.144674 0.599348
vt 0.008908 0.575174
vt 0.192302 0.119041
vt 0.192302 0.085395
vt 0.033566 0.725883
vt 0.144479 0.514467
vt 0.245074 0.490401
vt 0.061429 0.052507
vt 0.032962 0.080974
vt 0.582846 0.560006
vt 0.477452 0.604602
vt 0.375010 0.990512
vt 0.365111 0.980613
vt 0.444565 0.929219
vt 0.365111 0.918237
vt 0.375010 0.908338
vt 0.058053 0.919697
vt 0.093961 0.955605
vt 0.093961 0.665489
vt 0.058053 0.701396
vt 0.437414 0.990512
vt 0.447313 0.980613
vt 0.348197 0.701396
vt 0.312290 0.665489
vt 0.506969 0.929219
vt 0.667831 0.451802
s 0
usemtl Wings
f 28/1/1 2/2/1 4/3/1
f 59/4/2 6/5/2 22/6/2
f 10/4/3 6/5/3 7/7/3 1/8/3
f 69/1/4 4/3/4 2/2/4
f 70/9/5 49/10/5 5/11/5
f 28/1/6 4/3/6 5/11/6 29/9/6
f 59/4/7 3/8/7 7/7/7 6/5/7
f 3/8/8 23/12/8 7/7/8
f 69/1/9 70/9/9 5/11/9 4/3/9
f 29/9/10 5/11/10 49/10/10
f 1/8/11 7/7/11 23/12/11
f 10/4/12 22/6/12 6/5/12
usemtl Body
f 21/13/13 14/14/13 67/15/13
f 90/16/13 65/17/13 14/14/13 89/18/13
f 8/19/14 1/20/14 23/21/14
f 17/22/15 12/23/15 30/24/15 32/25/15
f 8/26/16 66/27/16 84/28/16
f 65/17/13 67/15/13 14/14/13
f 91/29/17 92/30/17 94/31/17 93/32/17
f 11/33/18 92/30/18 91/29/18 10/34/18
f 64/35/19 65/36/19 90/37/19 88/38/19
f 91/29/20 93/32/20 85/39/20
f 58/40/15 12/23/15 17/22/15 56/41/15
f 62/42/21 63/43/21 86/44/21 92/45/21
f 57/46/22 66/47/22 23/48/22
f 86/44/23 88/49/23 87/50/23 85/51/23
f 88/38/17 90/37/17 89/52/17 87/53/17
f 63/43/24 64/54/24 88/49/24 86/44/24
f 23/55/22 66/56/22 8/57/22
f 85/51/25 87/50/25 15/58/25 16/59/25
f 25/32/26 24/31/26 26/30/26 33/29/26
f 25/60/27 53/61/27 48/62/27 24/63/27
f 55/64/28 62/65/28 92/30/28 11/33/28
f 13/66/29 27/67/29 30/68/29 12/69/29
f 53/61/25 16/59/25 15/58/25 47/70/25
f 61/21/30 73/71/30 71/72/30 54/73/30
f 29/74/31 30/68/31 27/67/31 28/75/31
f 73/71/32 72/76/32 70/77/32 71/72/32
f 13/64/33 18/65/33 42/78/33 27/79/33
f 27/79/34 42/78/34 41/80/34 28/81/34
f 19/82/35 20/83/35 38/84/35 36/85/35
f 18/86/36 19/82/36 36/85/36 42/87/36
f 36/85/37 38/84/37 37/88/37 35/89/37
f 20/35/38 21/36/38 40/90/38 38/91/38
f 38/91/39 40/90/39 39/92/39 37/93/39
f 34/94/13 45/95/13 14/14/13 21/13/13
f 41/80/40 43/96/40 35/97/40
f 36/98/41 44/99/41 42/100/41
f 43/96/39 41/80/39 42/78/39 44/101/39
f 37/102/42 39/103/42 52/36/42 51/35/42
f 35/89/43 37/88/43 51/104/43 50/105/43
f 41/106/44 35/89/44 50/105/44 2/107/44
f 29/108/45 49/109/45 31/110/45
f 40/111/13 21/13/13 52/112/13 39/113/13
f 33/114/46 22/115/46 16/59/46 53/61/46
f 3/116/14 57/117/14 23/118/14
f 33/119/47 59/120/47 22/65/47
f 33/29/48 53/39/48 25/32/48
f 18/86/36 26/121/36 48/62/36 19/82/36
f 46/38/26 47/53/26 45/52/26 34/37/26
f 32/25/49 30/24/49 29/122/49 31/123/49
f 60/33/50 59/34/50 33/29/50 26/30/50
f 17/55/51 66/56/51 56/124/51
f 61/21/30 54/73/30 9/125/30 84/126/30
f 13/64/33 60/33/33 26/30/33 18/65/33
f 20/35/38 46/38/38 34/37/38 21/36/38
f 1/127/52 9/125/52 11/128/52 10/129/52
f 55/130/53 11/128/53 9/125/53 54/73/53
f 91/131/46 85/51/46 16/59/46 22/115/46
f 13/66/29 12/69/29 58/132/29 60/133/29
f 55/130/53 54/73/53 71/72/53 68/134/53
f 3/135/54 58/40/54 56/41/54 57/136/54
f 70/77/55 69/137/55 68/134/55 71/72/55
f 48/62/56 53/61/56 47/70/56 46/138/56
f 55/64/28 68/79/28 81/78/28 62/65/28
f 68/79/57 69/81/57 80/80/57 81/78/57
f 63/43/24 75/139/24 77/140/24 64/54/24
f 62/42/21 81/141/21 75/139/21 63/43/21
f 75/139/58 74/142/58 76/143/58 77/140/58
f 64/35/19 77/91/19 79/90/19 65/36/19
f 77/91/59 76/93/59 78/92/59 79/90/59
f 49/48/60 72/144/60 66/47/60
f 80/80/61 74/97/61 82/96/61
f 75/145/62 81/146/62 83/147/62
f 80/80/59 82/96/59 83/101/59 81/78/59
f 76/148/42 51/35/42 52/36/42 78/149/42
f 74/142/43 50/105/43 51/104/43 76/143/43
f 80/150/44 2/107/44 50/105/44 74/142/44
f 91/151/47 22/65/47 10/152/47
f 79/153/13 78/154/13 52/112/13 65/17/13
f 3/155/63 59/156/63 60/133/63 58/132/63
f 31/46/60 49/48/60 66/47/60
f 32/157/64 31/158/64 66/27/64
f 17/48/51 32/159/51 66/47/51
f 72/160/65 73/161/65 66/27/65
f 65/17/13 52/112/13 67/15/13
f 21/13/13 67/15/13 52/112/13
f 73/159/66 61/48/66 66/47/66
f 86/145/67 94/147/67 92/146/67
f 43/162/68 44/163/68 36/85/68 35/89/68
f 19/82/35 48/62/35 46/138/35 20/83/35
f 74/142/69 75/139/69 83/164/69 82/165/69
f 87/148/70 89/149/70 14/36/70 15/35/70
f 56/166/71 66/27/71 57/167/71
f 47/102/70 15/35/70 14/36/70 45/103/70
f 48/98/72 26/100/72 24/99/72
f 2/65/73 28/120/73 41/119/73
f 72/19/45 49/21/45 70/20/45
f 80/151/73 69/152/73 2/65/73
f 85/51/74 93/168/74 94/169/74 86/44/74
f 84/170/66 66/47/66 61/48/66
f 84/126/75 9/125/75 1/127/75 8/171/75
